<svg width="120" height="120" viewBox="0 0 120 120" fill="none" xmlns="http://www.w3.org/2000/svg">
<path d="M56.9337 35.5126L56.9766 35.4468C57.521 34.6208 58.3603 33.9336 59.0637 33.2364L75.042 17.4885C76.2799 16.2713 77.2001 15.4248 78.9727 15.0588C82.9277 14.7087 85.9516 19.0796 83.3834 22.4659C82.7363 23.3193 81.8592 24.0069 81.1008 24.7597L61.3531 44.2923C59.4284 46.1783 57.5229 48.1323 54.4699 46.424C53.2041 45.7157 50.0191 42.2711 48.6877 40.8775C47.3993 39.5451 45.169 37.6513 44.2373 36.2038C42.42 33.3803 44.3843 29.6673 47.5582 29.1287C51.4732 28.4645 54.0016 33.4675 56.8404 35.4482L56.9337 35.5126ZM79.392 17.7155C77.9461 17.9458 76.6055 19.7015 75.603 20.6743L70.695 25.517C66.0532 30.1363 61.4196 34.7732 56.6944 39.3072C55.3638 37.7962 50.9761 33.2003 49.3322 32.0626C47.9255 31.0893 44.4743 32.8919 47.2688 35.6645L48.5358 36.9008C49.8839 38.1885 55.2441 44.3406 56.8359 44.3268C58.159 44.3153 60.2428 41.5642 61.1517 40.6722L77.7548 24.3158C78.7678 23.3181 81.7336 21.1548 81.6696 19.6251C81.6202 18.4433 80.4921 17.7139 79.392 17.7155Z" fill="#F3932B"/>
<path d="M25.1946 42.9592C24.4359 42.2927 23.6259 41.6795 22.8506 41.0317L16.6048 35.7778C15.3047 34.6619 12.7327 33.382 13.9831 31.2998C14.7409 30.0381 18.075 29.3859 19.4173 28.9389L29.4905 25.6169C34.1927 24.0234 38.8926 22.417 43.6209 20.9022C45.2489 20.3806 46.8822 19.692 48.5358 19.2835C49.7613 19.1943 50.8012 20.744 51.5777 21.5083L57.6002 27.4141C58.0158 27.8186 58.4946 28.2199 58.8473 28.6799C58.1983 29.2874 57.5564 29.8982 56.9337 30.5329C56.3428 29.8382 55.6111 29.2394 54.9583 28.6007L50.9552 24.6867C50.1513 23.9135 49.144 23.083 48.5358 22.1436C47.4155 22.4048 46.3148 22.8377 45.2247 23.2046L24.899 29.9479C22.2435 30.8256 19.6071 31.7399 16.9404 32.5867C18.8481 34.2253 20.8218 35.7904 22.7389 37.42L25.2747 39.5638C25.9355 40.1308 26.5711 40.7315 27.2707 41.2509C29.8858 40.698 40.3976 36.5449 40.9962 36.8594C41.3184 37.7144 41.9515 38.3592 42.5564 39.0229C38.7129 40.4371 34.7948 41.6348 30.9211 42.9592C31.781 43.3727 32.7865 43.6328 33.6923 43.9415L56.024 51.4457C56.707 51.6817 59.4473 52.6928 59.8706 52.6954C60.6293 52.6999 66.5217 50.5762 67.7179 50.1677L84.5817 44.5888C86.099 44.0901 87.7085 43.6584 89.1455 42.9592C88.129 42.7274 87.1507 42.3557 86.1621 42.0285C81.7523 40.5691 77.3144 39.0733 72.9708 37.4327C73.679 36.8088 74.3182 35.9767 75.1451 35.5124C76.8391 35.7159 79.2583 36.8261 80.9442 37.4022L92.9006 41.4424C95.1759 38.8017 100.371 34.9525 103.14 32.5867C101.608 32.0181 100.026 31.5649 98.4759 31.0478L89.3836 27.9958C87.6991 27.431 85.9537 26.9327 84.3162 26.2483C84.8744 25.4793 85.5853 24.8214 86.2551 24.1511C86.9013 24.2777 87.5419 24.5465 88.1669 24.7563L103.14 29.7712C108.724 31.5431 106.327 33.351 102.941 36.251C100.335 38.4831 97.6444 40.6471 95.1103 42.9592C95.8877 44.0453 96.8855 45.0295 97.7686 46.0349L103.303 52.271C103.953 52.9973 106.035 55.1053 106.314 55.9153C107.291 58.7542 103.051 59.4163 101.261 60.0018L95.9763 61.7784L95.9789 87.3845C95.9787 90.0724 96.2055 92.4796 93.153 93.6642C91.4548 94.3232 89.6702 94.8208 87.9389 95.3882L67.1376 102.346C60.2034 104.729 61.2684 105.105 54.4289 102.807L32.9421 95.5954C31.0026 94.9509 29.0067 94.4158 27.1003 93.6817C23.6688 92.3608 23.9915 89.9275 23.9941 86.8895L23.9951 61.7784C22.5076 61.1535 14.8872 58.8046 14.1647 58.0717C12.4867 56.3695 14.5785 54.6299 15.6305 53.4522C18.5561 50.1775 22.1195 45.862 25.1946 42.9592ZM27.2707 44.5689L20.172 52.3769C18.9558 53.7292 17.5679 55.0518 16.5451 56.5542C18.109 56.7478 19.644 57.4239 21.1378 57.9163L42.9933 65.196C44.4527 65.6845 45.9368 66.1277 47.3843 66.6456C47.6508 66.7106 47.9641 66.8308 48.2273 66.7063C48.7326 66.4673 56.129 57.1138 57.877 54.9363C56.0262 54.0963 53.9634 53.5982 52.0315 52.9537L29.1912 45.254C28.6673 45.082 27.7493 44.6254 27.2707 44.5689ZM92.9006 44.7731C89.3967 45.726 85.987 47.0174 82.5396 48.1502C75.7472 50.3817 68.9449 52.6024 62.1867 54.9363C64.2014 57.5275 66.2761 60.0681 68.3229 62.6334C69.33 63.8957 70.649 65.7799 71.7909 66.8374C72.1235 66.7624 72.4577 66.7035 72.7936 66.6456C73.9169 66.1356 75.1469 65.7974 76.32 65.4135L82.4723 63.4073C89.4602 61.0844 96.4533 58.7113 103.493 56.5542C101.305 53.6214 98.1853 50.5996 95.7129 47.7328C94.8654 46.75 93.9944 45.6117 93.0049 44.7768L92.9006 44.7731ZM58.6882 58.3813C57.0766 59.6753 53.5324 64.4617 52.1562 66.1881C48.4448 70.844 48.1348 69.752 43.0643 68.0266L37.6219 66.2301C35.0583 65.3676 29.0925 62.9885 26.6611 62.6381L26.6592 86.5959C26.6592 90.1708 25.979 90.5763 29.7159 91.7507L53.1832 99.5749C55.0148 100.201 56.8223 100.885 58.6882 101.41C58.7013 97.8953 58.7257 58.446 58.6882 58.3813ZM61.3755 58.3813C61.2846 59.8312 61.3772 61.331 61.3772 62.7869L61.3755 101.41C62.369 101.156 63.3438 100.801 64.3165 100.477L88.2654 92.4862C88.9973 92.2504 89.726 91.9537 90.4657 91.7507C91.3073 91.4992 92.7307 91.2557 93.1687 90.4042C93.562 89.6402 93.3312 84.9611 93.3307 83.9071L93.3314 66.261C93.3316 65.0627 93.3968 63.8322 93.3305 62.6381C90.7865 63.3478 88.2759 64.2623 85.7744 65.1114L74.8355 68.7325C70.3591 70.2381 70.2246 69.3342 67.2708 65.6013L63.1502 60.4197C62.6562 59.8052 61.9999 58.8262 61.3755 58.3813Z" fill="#F3932B"/>
<path d="M29.7159 67.4453H30.2545H32.343C32.2816 68.1782 32.3355 68.9491 32.3388 69.6866L32.343 86.4761C33.979 86.8567 36.9424 87.8683 38.4944 88.5346C38.2985 89.3524 38.1082 90.172 37.8895 90.9838C35.153 90.127 32.4426 89.2141 29.7159 88.33C29.6669 87.5896 29.7138 86.8211 29.7141 86.0774L29.7159 67.4453Z" fill="#F3932B"/>
</svg>
