<svg width="120" height="120" viewBox="0 0 120 120" fill="none" xmlns="http://www.w3.org/2000/svg">
<path d="M90.8836 23.28C94.725 19.2712 98.6294 16.0627 104.408 15.5482C112.192 15.0775 112.085 21.9989 108.965 27.1922C107.629 29.4164 102.765 34.2834 100.08 34.96C99.1943 34.7125 98.4143 33.8196 99.2972 32.9929C99.9462 32.3852 100.905 31.9739 101.646 31.47C103.742 30.045 105.694 28.1369 107.074 25.9961C108.346 24.0234 109.914 19.9091 107.232 18.3435C103.244 16.0152 94.5096 21.5179 92.5141 24.9499C93.3588 25.8588 94.2455 26.7255 95.1248 27.6004C97.3127 29.7764 97.4576 29.8169 97.294 32.7532L96.094 55.7189C95.9707 58.2752 95.8983 61.0626 95.6503 63.5901C95.4159 65.9763 93.112 67.5396 91.5328 69.1075L52.9723 107.522C50.8737 109.577 49.5508 111.078 46.2764 110.719C43.4299 110.317 41.7825 107.965 39.8676 106.057L12.798 78.9386C10.2208 76.379 6.55693 73.3176 9.78755 69.3707C10.7319 68.2169 11.9055 67.1768 12.9606 66.1209L50.0201 29.0683C51.6733 27.4176 53.4595 24.9944 55.9598 24.7596C58.3673 24.5334 60.8006 24.4298 63.2137 24.2522L85.6097 22.603C87.6598 22.4565 89.1635 21.8519 90.8836 23.28ZM87.8463 25.5846L59.6177 27.6979C58.0219 27.8168 56.2165 27.5484 54.9773 28.7311C51.8773 31.6896 48.8995 34.7777 45.8801 37.8171L13.9348 69.6391C10.9561 72.6471 11.0429 72.8245 14.409 76.1524L26.5406 88.3315C28.3887 90.1727 30.2803 91.9708 32.0829 93.8571L41.8369 103.572C45.7823 107.475 46.2501 109.852 51.1057 104.987L88.136 68.1117C89.6067 66.652 91.2846 65.2464 92.5141 63.5667C92.7881 60.5664 92.8901 57.5582 93.0197 54.5493L93.99 35.6318C94.0603 34.1325 94.1815 32.6001 94.1644 31.1008C92.6555 29.3245 90.3197 27.1389 88.6062 25.5846C88.353 25.5827 88.0994 25.5778 87.8463 25.5846Z" fill="#F3932B"/>
<path d="M82.9416 44.271C79.0519 44.5143 75.7083 41.5431 75.4931 37.6518C75.278 33.7604 78.2735 30.4384 82.1663 30.2514C86.0194 30.0665 89.2999 33.0247 89.513 36.8762C89.726 40.7279 86.7917 44.0301 82.9416 44.271ZM82.1454 33.3273C80.7403 33.4443 79.5066 34.307 78.9148 35.5865C78.323 36.8661 78.4643 38.365 79.2851 39.5113C80.1059 40.6576 81.4791 41.2743 82.8811 41.1264C85.0156 40.9009 86.5713 38.9999 86.3698 36.8631C86.168 34.7261 84.2843 33.1494 82.1454 33.3273Z" fill="#F3932B"/>
<path d="M57.9124 49.4245C58.1009 49.301 58.3071 49.2063 58.5082 49.1055C58.9922 49.0741 59.5706 49.17 59.8301 49.6366C60.1043 50.1297 61.2823 58.1022 61.5492 59.6055L62.6911 65.9775C62.9585 67.4032 63.9677 69.5925 62.4961 70.4015C60.5688 70.92 60.4952 67.1599 60.2684 65.8849L59.089 59.0583C58.8354 57.5761 57.327 50.5561 57.9124 49.4245Z" fill="#F3932B"/>
<path d="M54.5053 62.3773C48.9609 63.2686 46.0186 53.5814 51.7221 52.9917C56.4274 52.3711 60.5084 60.7615 54.5053 62.3773ZM52.0329 55.2127C49.6816 55.5497 51.3059 60.0595 54.0923 60.1568C56.5992 59.3871 54.5095 55.3603 52.0329 55.2127Z" fill="#F3932B"/>
<path d="M69.3717 66.4795C63.7214 67.2417 60.9089 57.6794 66.6881 56.9768C71.9076 56.1719 75.3752 65.4283 69.3717 66.4795ZM66.9635 59.1867C64.3554 59.7712 66.3246 64.2103 69.0823 64.2909C71.6836 63.6075 69.348 59.1321 66.9635 59.1867Z" fill="#F3932B"/>
<path d="M52.0329 80.3733C48.5131 80.775 47.1577 78.9002 44.9032 76.7032L41.8941 73.7419C41.1856 73.0364 40.4269 72.3473 39.8442 71.5313C36.9649 67.4991 39.6917 62.4776 44.2866 61.7147C48.2552 61.4121 49.444 63.2869 51.9267 65.79C53.2439 67.1177 55.3399 68.9559 56.3517 70.4234C59.0466 74.3316 56.7942 79.5237 52.0329 80.3733ZM45.0429 65.3475C44.2092 65.4895 43.4944 65.7675 42.9783 66.4781C41.5149 68.4938 43.339 70.0434 44.6642 71.363L47.246 73.935C48.473 75.1599 49.4721 76.7742 51.4013 76.6995C53.3344 76.3875 54.4793 74.1886 53.2324 72.5203C52.2096 71.1518 46.9629 65.2064 45.0429 65.3475Z" fill="#F3932B"/>
</svg>
