<svg width="31" height="32" viewBox="0 0 31 32" fill="none" xmlns="http://www.w3.org/2000/svg">
<g clip-path="url(#clip0_49_16585)">
<mask id="mask0_49_16585" style="mask-type:luminance" maskUnits="userSpaceOnUse" x="0" y="0" width="32" height="32">
<path d="M6.57212 0.5H24.4284C28.0452 0.5 31.0005 3.43467 31.0005 7.072V24.928C31.0005 28.5447 28.0658 31.5 24.4284 31.5H6.57212C2.95539 31.5 0 28.5653 0 24.928V7.072C0 3.43467 2.93472 0.5 6.57212 0.5Z" fill="white"/>
</mask>
<g mask="url(#mask0_49_16585)">
<path d="M31.0002 0.5H-0.000305176V31.5H31.0002V0.5Z" fill="#005BFF"/>
<path fill-rule="evenodd" clip-rule="evenodd" d="M15.2707 16.0413L14.7954 14.2639L17.8127 12.2593L21.4295 12.5073L21.9461 14.2226L38.3764 31.8926L12.6873 39.6839L15.2707 16.0413Z" fill="#F91155"/>
<path fill-rule="evenodd" clip-rule="evenodd" d="M3.28483 21.2289C2.12748 21.7042 0.825456 20.9396 0.639453 19.6376C0.51545 18.7696 0.990792 17.9016 1.79681 17.5709C2.95416 17.0956 4.25618 17.8602 4.44219 19.1416C4.56619 20.0302 4.09085 20.8982 3.28483 21.2289ZM1.94148 15.7522C-0.311231 16.1242 -1.63392 18.4802 -0.80724 20.6916C-0.207896 22.3242 1.46613 23.3162 3.14016 23.0476C5.39287 22.6756 6.71556 20.3196 5.88888 18.1082C5.28954 16.4756 3.61551 15.4836 1.94148 15.7522Z" fill="white"/>
<path fill-rule="evenodd" clip-rule="evenodd" d="M6.98376 14.4706C6.46709 14.6153 6.19842 15.1733 6.44642 15.6899C6.63242 16.0619 7.06643 16.2273 7.45911 16.1239L9.73248 15.5039L7.45911 21.2079C7.37644 21.3939 7.56244 21.5799 7.74844 21.5386L13.3079 20.0506C13.7005 19.9473 13.9899 19.5753 13.9692 19.1619C13.9279 18.6039 13.4112 18.2319 12.8945 18.3766L10.1252 19.1206L12.3985 13.4166C12.4812 13.2306 12.2952 13.0239 12.1092 13.0859L6.98376 14.4706Z" fill="white"/>
<path fill-rule="evenodd" clip-rule="evenodd" d="M29.2227 8.47732C28.8714 8.66332 28.706 9.09732 28.8094 9.48999L29.5534 12.2593L24.1593 9.88266C23.9733 9.79999 23.7666 9.96532 23.8286 10.172L25.358 15.876C25.4613 16.2687 25.8126 16.558 26.226 16.5373C26.784 16.5167 27.156 15.9793 27.0113 15.4627L26.226 12.6727L31.6201 15.0493C31.8061 15.132 32.0128 14.9667 31.9507 14.76L30.4214 9.03532C30.2974 8.49799 29.7187 8.22932 29.2227 8.47732Z" fill="white"/>
<path fill-rule="evenodd" clip-rule="evenodd" d="M17.6083 11.4327C14.9009 12.156 13.1442 14.3467 13.6609 16.3307C14.1983 18.294 16.8023 19.3067 19.5097 18.5834C22.2171 17.86 23.9738 15.6694 23.4571 13.706C22.9404 11.722 20.3157 10.7094 17.6083 11.4327ZM18.063 13.1067C19.923 12.6107 21.5971 13.2307 21.8451 14.14C22.0931 15.0287 20.9564 16.4134 19.0963 16.9094C17.2363 17.4054 15.5623 16.7854 15.3143 15.876C15.0663 14.9874 16.1823 13.6027 18.063 13.1067Z" fill="white"/>
</g>
</g>
<defs>
<clipPath id="clip0_49_16585">
<rect width="31" height="31" fill="white" transform="translate(0 0.5)"/>
</clipPath>
</defs>
</svg>
