<svg width="32" height="32" viewBox="0 0 32 32" fill="none" xmlns="http://www.w3.org/2000/svg">
<g clip-path="url(#clip0_49_17035)">
<mask id="mask0_49_17035" style="mask-type:luminance" maskUnits="userSpaceOnUse" x="0" y="0" width="32" height="32">
<path d="M24.2168 0H7.78318C3.48465 0 0 3.48465 0 7.78318V24.2168C0 28.5153 3.48465 32 7.78318 32H24.2168C28.5153 32 32 28.5153 32 24.2168V7.78318C32 3.48465 28.5153 0 24.2168 0Z" fill="white"/>
</mask>
<g mask="url(#mask0_49_17035)">
<path d="M0 0H32.0785V32.0785H0V0Z" fill="#100943"/>
<path d="M31.9993 15.999C40.8355 15.999 47.9986 8.83588 47.9986 -0.000324249C47.9986 -8.83783 40.8355 -16.001 31.9993 -16.001C23.1631 -16.001 15.9999 -8.83783 15.9999 -0.000324249C15.9999 8.83718 23.1644 15.999 31.9993 15.999Z" fill="#ED143B"/>
<path d="M19.7662 15.2694H10.31V11.5283H19.7649C20.3169 11.5283 20.7002 11.6238 20.8938 11.7925C21.0861 11.9599 21.2051 12.2726 21.2051 12.7278V14.0712C21.2051 14.5513 21.0861 14.8626 20.8938 15.03C20.7002 15.1988 20.3169 15.2707 19.7649 15.2707L19.7662 15.2694ZM20.4137 8.00164H6.30196V23.9997H10.3113V18.7934H17.7007L21.2064 23.9997H25.6958L21.8304 18.7699C23.2562 18.5593 23.8959 18.1224 24.423 17.4029C24.9515 16.6835 25.2157 15.5324 25.2157 13.9967V12.7971C25.2157 11.8854 25.1203 11.1659 24.9515 10.6139C24.7823 10.0655 24.4866 9.56457 24.0882 9.15146C23.6639 8.74844 23.1548 8.44541 22.5982 8.26457C22.0227 8.09582 21.3019 7.99902 20.4137 7.99902V8.00164Z" fill="white"/>
</g>
</g>
<defs>
<clipPath id="clip0_49_17035">
<rect width="32" height="32" rx="16" fill="white"/>
</clipPath>
</defs>
</svg>
