<svg width="120" height="120" viewBox="0 0 120 120" fill="none" xmlns="http://www.w3.org/2000/svg">
<path d="M31.3249 34.6091C31.3683 32.1562 30.8112 25.4753 32.1546 23.7184C33.8559 21.4934 36.7413 22.0728 39.1924 22.0753L47.051 22.0792C49.9779 22.0796 49.7041 22.3849 51.9668 20.6311C54.1547 18.9353 56.8411 16.58 59.6105 16.2311C62.7923 15.7251 67.4332 20.315 70.1327 22.0766L80.2741 22.0752C83.5008 22.0707 87.6895 21.2578 88.631 25.4542C88.8464 26.4147 88.7149 27.6081 88.7149 28.6012L88.7107 34.6091C92.0756 37.1008 95.5235 39.4951 98.9405 41.9158L101.86 43.9691C104.347 45.745 105.633 47.3268 105.66 50.6298L105.654 92.1979C105.656 93.5955 105.794 95.4545 105.583 96.7872C105.095 99.8582 102.496 102.578 99.4327 103.164C97.9605 103.446 96.3195 103.315 94.8197 103.315L60.6593 103.313L24.7216 103.314C23.2952 103.315 21.6778 103.471 20.2887 103.161C13.7857 101.707 14.3653 95.4144 14.3646 90.4487L14.363 52.6042C14.3626 47.4233 14.5113 46.473 19.0812 43.2592L23.1718 40.3893C25.8832 38.4726 28.4981 36.3545 31.3249 34.6091ZM59.8678 18.7778C58.0777 18.9511 55.5096 20.7812 54.4467 22.0766H60.3223H65.73C64.2204 20.9085 61.818 18.6687 59.8678 18.7778ZM35.4352 24.6093C33.1254 24.8973 33.8334 28.6227 33.8341 30.4262L33.8374 58.806C34.7606 59.2965 35.5901 59.9373 36.4416 60.5397C38.9372 62.3047 41.4984 63.9925 44.0154 65.7294L56.9932 74.7323C60.6403 77.274 60.6762 76.2735 64.0589 73.9764L72.7221 68.0394C73.4721 67.5327 74.2005 66.9801 74.9609 66.4909L83.2894 60.7527C84.2388 60.0894 85.17 59.4076 86.1614 58.806L86.1628 30.0587C86.1628 28.8294 86.2193 27.5687 86.1457 26.3427C86.0119 24.1131 84.1598 24.6086 82.5246 24.6086L45.4158 24.6097C43.2551 24.6097 37.1325 24.291 35.4352 24.6093ZM31.3249 37.8676C29.0604 38.9125 24.7102 42.4593 22.5683 43.9956C21.0469 45.0869 18.9129 46.0281 17.8883 47.6547C19.6193 49.0605 21.5491 50.3394 23.4221 51.5481C26.0332 53.4114 28.7184 55.1701 31.3249 57.0332C31.3247 55.2918 31.3573 37.918 31.3249 37.8676ZM88.7107 37.8676L88.7093 50.6633C88.7091 52.7816 88.6519 54.917 88.7107 57.0332C90.1955 55.8742 95.543 52.1256 96.9459 51.5481C97.6835 50.7323 101.216 48.3911 102.343 47.6547C100.984 46.345 99.4012 45.3315 97.8623 44.2508L92.1546 40.2348C91.4449 39.7377 89.3405 38.1348 88.7107 37.8676ZM16.8538 50.2072L16.8548 90.5394C16.8535 93.0698 16.3449 96.5819 17.8883 98.7257C19.934 97.0026 21.9587 95.223 23.9365 93.4216L29.7495 88.157C31.1023 86.9558 32.4206 85.6813 33.8374 84.5575C35.1115 83.1965 36.6356 82.0157 38.0208 80.7658L48.2093 71.7041C47.4218 71.0905 46.5766 70.5487 45.7502 69.9894L19.9658 52.2939C19.0188 51.6477 17.8495 50.6978 16.8538 50.2072ZM103.187 50.2072C99.7873 52.2866 96.3464 55.0019 92.974 57.2683L75.1936 69.4419C74.1 70.1922 72.9652 70.9087 71.9046 71.7041C76.8239 75.8697 81.4591 80.3413 86.3262 84.5575C90.2918 88.0684 94.0718 91.7889 98.1007 95.2298C99.442 96.3754 100.825 97.4978 102.092 98.7257C103.665 96.6423 103.189 93.7752 103.189 91.3302L103.185 63.1382C103.185 58.8512 103.157 54.5629 103.231 50.2769L103.187 50.2072ZM69.7554 73.2365C67.47 74.4908 63.5688 77.8567 61.5394 78.561C58.1571 79.7352 53.3367 75.2814 50.3219 73.2365L21.9893 98.4836C21.2395 99.1377 20.4187 99.7424 19.7092 100.437C21.5753 100.987 23.6039 100.843 25.5321 100.842L44.6777 100.84L92.2856 100.839C94.6591 100.84 98.0848 101.282 100.228 100.249C97.4187 98.0971 94.8459 95.5881 92.1977 93.2451L71.9363 75.0526C71.3341 74.5124 70.4684 73.5683 69.7554 73.2365Z" fill="#F3932B"/>
<path d="M79.0575 36.2709L46.7944 36.2716C45.9033 36.2718 42.6914 36.5671 42.0478 36.006C40.9898 35.0835 41.7199 33.7924 43.2874 33.7963L75.9865 33.794C77.0299 33.7935 81.2098 33.1675 80.6571 35.272C80.5263 35.7703 80.2195 36.0241 79.7927 36.2709H79.0575Z" fill="#F3932B"/>
<path d="M70.8762 43.0035C70.8668 41.4749 70.2162 38.7268 72.157 38.458C73.3474 38.7179 80.633 43.8172 80.943 44.3162C81.0565 44.4988 81.1165 44.7407 81.1774 44.9462C80.7286 46.5015 76.5426 48.7806 75.1172 49.7118C71.0658 52.3583 70.9165 52.4565 70.8762 47.8529C70.9479 46.2522 70.8928 44.6075 70.8762 43.0035ZM73.4231 42.2012C73.4102 44.0181 73.4756 45.8387 73.4231 47.6544C74.385 47.2609 75.259 46.5946 76.0859 45.9711C76.6076 45.6454 77.1103 45.3015 77.6119 44.9462L75.067 43.2273C74.553 42.8816 73.9896 42.444 73.4231 42.2012Z" fill="#F3932B"/>
<path d="M46.3507 48.6294C45.1568 47.803 41.1108 45.7757 42.1291 44.2714C42.5112 43.7071 49.7845 38.5691 50.738 38.458C52.5413 38.5475 52.2141 40.0684 52.2143 41.4449L52.2136 44.4622C52.2124 46.5025 52.3099 48.6179 52.2122 50.6455C51.1638 52.2749 50.1115 51.2052 48.9645 50.4144L46.3507 48.6294ZM49.744 42.006C48.5735 42.6845 46.5183 44.0556 45.4741 44.9462C46.0556 45.4 46.6741 45.8078 47.2809 46.2264C48.0952 46.772 48.9019 47.3521 49.744 47.8529C49.7386 47.1969 49.8195 42.1328 49.744 42.006Z" fill="#F3932B"/>
<path d="M70.8762 43.6974C70.8584 43.4649 70.8677 43.2362 70.8762 43.0034C70.8928 44.6075 70.9479 46.2521 70.8762 47.8529C70.8464 47.2233 70.8581 46.6006 70.8762 45.9711L65.8985 45.9744C65.0742 45.9781 63.2585 46.287 62.5943 45.68C61.9399 45.0819 62.1947 43.91 63.0877 43.7605C63.9919 43.609 64.9917 43.6939 65.9095 43.6946L70.8762 43.6974Z" fill="#F3932B"/>
<path d="M59.6105 45.9711C58.9652 46.0456 55.0596 46.0243 54.4854 45.9033C53.3944 45.6736 53.5031 44.1933 54.4467 43.6974C55.2696 43.6465 59.0869 43.6081 59.6955 43.8457C60.6638 44.2236 60.4479 45.5836 59.6105 45.9711Z" fill="#F3932B"/>
<path d="M79.7927 56.0143C77.5955 56.1094 75.2264 56.0154 73.012 56.0152L48.4521 56.0161C47.1584 56.0166 43.1595 56.1727 42.1973 55.8661C41.1921 55.5458 41.2573 54.0926 42.4983 53.4943L76.6812 53.4954C77.9979 53.491 79.9097 52.9681 80.6759 54.3233C80.734 55.1063 80.5392 55.6503 79.7927 56.0143Z" fill="#F3932B"/>
</svg>
