<svg width="65" height="64" viewBox="0 0 65 64" fill="none" xmlns="http://www.w3.org/2000/svg">
<path d="M7.96917 42.4197C4.94193 41.8627 5.68818 35.995 5.68881 33.7831L5.68837 18.2759C5.68846 17.5507 5.62422 16.378 5.72082 15.7025C5.98383 13.8634 7.48121 12.5551 9.34371 12.5201L35.9349 12.5182C37.4376 12.5171 38.5213 12.4959 39.6573 13.6417C40.8698 14.8647 40.6838 16.2781 40.6834 17.856L40.6849 22.0114H45.9384C45.9349 21.5312 45.8146 20.4437 46.1073 20.0647C46.414 19.6674 47.1428 19.8512 47.2846 20.3132C47.3914 20.6607 47.2989 21.5969 47.312 22.0114C50.5746 22.1844 50.6331 22.4065 52.3064 25.4184C53.4466 27.4709 54.5259 29.492 55.6292 31.5565C59.2729 32.8511 59.2927 35.1016 59.2938 38.2469L59.2932 44.144C59.2908 46.7767 58.5667 46.7829 56.1324 46.7746L54.2058 46.7775C53.915 48.1637 53.0859 49.4067 51.9511 50.2384C48.3968 52.834 43.7835 50.9542 42.5708 46.7775C36.13 46.8474 29.6855 46.7085 23.2445 46.7775C21.909 52.7472 13.2135 53.2425 11.5487 46.7775C8.98494 46.885 7.96468 46.8774 7.96667 43.9189L7.96917 42.4197ZM23.6204 13.9062C22.5638 13.88 21.5013 13.9066 20.4439 13.9069L10.8697 13.9046C8.96664 13.9031 7.14941 13.8861 7.09548 16.3231C7.05671 18.0759 7.09476 19.8385 7.09444 21.5921L7.09318 37.2094C7.09232 38.4039 6.80933 39.7186 7.70817 40.6642C8.88684 41.9042 11.4631 41.2045 13.0193 41.4066C15.0531 38.8424 18.9851 38.9536 21.3535 41.0546C21.4856 41.1751 21.6161 41.297 21.7576 41.4066L35.7089 41.4075C38.4026 41.408 39.2779 40.9486 39.2718 38.0594L39.2689 18.2861C39.2714 14.9879 39.5013 13.9049 35.8104 13.9047L23.6204 13.9062ZM48.1463 23.4037H45.4306C45.4074 24.1122 45.3465 29.1354 45.5284 29.3995C46.0679 29.7809 50.732 30.5282 51.6813 30.7242C52.389 30.8791 53.1298 30.9569 53.8288 31.1379C53.6444 30.7095 53.4088 30.304 53.1863 29.8945L51.939 27.6432C51.0924 26.0985 50.2295 23.2312 48.1463 23.4037ZM40.6849 23.4037L40.6864 37.5935C40.6904 41.0645 39.8094 42.8402 36.0639 42.798C31.6225 42.7479 27.1729 42.7739 22.7309 42.7917C23.0499 43.6217 23.3735 44.4802 23.3454 45.3864C24.8988 45.4102 26.4561 45.3864 28.01 45.3861L41.0879 45.3877C41.4279 45.3882 42.1744 45.4431 42.4569 45.3864C42.557 43.7357 43.1818 42.1967 44.4405 41.0891C47.0634 38.7814 51.5704 39.1529 53.3649 42.219H57.8787L57.8805 38.3421C57.8825 33.9906 57.4407 33.3441 53.2059 32.4637C51.2757 32.0625 49.3382 31.7086 47.4095 31.2972C45.241 30.8346 44.0807 31.0825 44.0638 28.3341L44.064 23.4037H40.6849ZM16.8588 40.9141C14.341 41.1927 12.525 43.4585 12.8013 45.9765C13.0776 48.4945 15.3418 50.3125 17.86 50.0384C20.3815 49.7639 22.2023 47.4964 21.9255 44.9752C21.6489 42.4541 19.3798 40.6352 16.8588 40.9141ZM48.1906 40.9407C45.6799 41.0625 43.7441 43.198 43.869 45.7086C43.9938 48.2191 46.1318 50.1522 48.6423 50.0242C51.1482 49.8965 53.077 47.763 52.9524 45.257C52.8278 42.7509 50.6969 40.8194 48.1906 40.9407ZM9.34371 42.7917L9.34018 44.1714C9.32391 45.7919 9.81438 45.3941 11.4458 45.3864C11.4363 45.1909 11.4319 45.0021 11.4458 44.8067C11.5344 44.0967 11.7691 43.4541 12.0253 42.7917C11.8917 42.7641 9.48317 42.7595 9.34371 42.7917ZM54.0628 43.6252C54.2473 44.2114 54.3333 44.7766 54.3818 45.3864H57.4693C57.5544 45.3295 57.6445 45.2751 57.7258 45.2129C57.991 44.8884 57.8831 44.0479 57.8787 43.6252H54.0628Z" fill="white"/>
<path d="M23.529 29.3244C22.42 29.5546 20.14 25.2029 19.6953 24.2817C18.4143 21.6275 20.401 18.9074 23.0852 18.6706C26.1236 18.5362 28.3046 21.7256 26.8182 24.5376C26.3382 25.4456 24.1381 28.9731 23.529 29.3244ZM22.8202 20.7518C21.7832 21.021 21.1497 22.094 21.3987 23.1599C21.6476 24.2258 22.6864 24.889 23.7302 24.6483C24.4178 24.4899 24.969 23.9642 25.1727 23.2731C25.3766 22.5818 25.2014 21.8315 24.7144 21.3095C24.2272 20.7876 23.5037 20.5745 22.8202 20.7518Z" fill="white"/>
<path d="M17.6739 48.5226C15.9872 48.6988 14.478 47.4722 14.3056 45.7852C14.1332 44.0982 15.3632 42.5917 17.0506 42.4231C18.7326 42.2552 20.2332 43.4804 20.405 45.162C20.5769 46.8436 19.3551 48.347 17.6739 48.5226ZM17.262 43.8237C16.6675 43.8533 16.1352 44.2016 15.8701 44.7345C15.605 45.2675 15.6482 45.902 15.9831 46.394C16.3181 46.8861 16.8926 47.159 17.4856 47.1077C18.3797 47.0306 19.0472 46.2514 18.9862 45.3559C18.9252 44.4605 18.1584 43.779 17.262 43.8237Z" fill="white"/>
<path d="M48.485 48.5996C46.7767 48.6333 45.3646 47.2758 45.3309 45.5676C45.2972 43.8594 46.6547 42.4473 48.363 42.4137C50.071 42.3801 51.483 43.7374 51.5167 45.4456C51.5504 47.1537 50.1931 48.5657 48.485 48.5996ZM48.3615 43.6042C47.3084 43.6321 46.4765 44.5071 46.5019 45.5602C46.5272 46.6134 47.4001 47.4473 48.4534 47.4246C49.5103 47.4017 50.3476 46.5251 50.3222 45.4683C50.2967 44.4116 49.4182 43.5763 48.3615 43.6042Z" fill="white"/>
<ellipse cx="23.1667" cy="31.9998" rx="4" ry="1.33333" fill="white"/>
</svg>
