<svg width="21" height="20" viewBox="0 0 21 20" fill="none" xmlns="http://www.w3.org/2000/svg">
<path d="M17.1417 8.33325H3.80833V14.9999C3.80833 17.4999 4.64167 18.3333 7.14167 18.3333H13.8083C16.3083 18.3333 17.1417 17.4999 17.1417 14.9999V8.33325Z" stroke="#19AD3D" stroke-width="1.5" stroke-miterlimit="10" stroke-linecap="round" stroke-linejoin="round"/>
<path d="M18.4167 5.83341V6.66675C18.4167 7.58341 17.975 8.33341 16.75 8.33341H4.25C2.975 8.33341 2.58334 7.58341 2.58334 6.66675V5.83341C2.58334 4.91675 2.975 4.16675 4.25 4.16675H16.75C17.975 4.16675 18.4167 4.91675 18.4167 5.83341Z" stroke="#19AD3D" stroke-width="1.5" stroke-miterlimit="10" stroke-linecap="round" stroke-linejoin="round"/>
<path d="M10.2 4.16662H5.6C5.31667 3.85828 5.325 3.38328 5.625 3.08328L6.80833 1.89995C7.11667 1.59162 7.625 1.59162 7.93333 1.89995L10.2 4.16662Z" stroke="#19AD3D" stroke-width="1.5" stroke-miterlimit="10" stroke-linecap="round" stroke-linejoin="round"/>
<path d="M15.3917 4.16662H10.7917L13.0583 1.89995C13.3667 1.59162 13.875 1.59162 14.1833 1.89995L15.3667 3.08328C15.6667 3.38328 15.675 3.85828 15.3917 4.16662Z" stroke="#19AD3D" stroke-width="1.5" stroke-miterlimit="10" stroke-linecap="round" stroke-linejoin="round"/>
<path d="M7.95 8.33325V12.6166C7.95 13.2833 8.68333 13.6749 9.24166 13.3166L10.025 12.7999C10.3083 12.6166 10.6667 12.6166 10.9417 12.7999L11.6833 13.2999C12.2333 13.6666 12.975 13.2749 12.975 12.6083V8.33325H7.95Z" stroke="#19AD3D" stroke-width="1.5" stroke-miterlimit="10" stroke-linecap="round" stroke-linejoin="round"/>
</svg>
