<svg width="425" height="132" viewBox="0 0 425 132" fill="none" xmlns="http://www.w3.org/2000/svg">
<g clip-path="url(#clip0_49_17028)">
<path d="M156.231 93.27C154.758 93.2142 153.531 93.1919 152.56 93.1919H151.3C150.507 93.1919 149.882 93.1808 149.425 93.1473C149.258 92.6563 149.18 92.2881 149.18 92.0426C149.18 91.7971 149.191 91.6298 149.224 91.5517C149.336 91.3285 149.392 90.9715 149.392 90.447C149.392 89.9003 149.358 89.4093 149.291 88.9742C149.224 88.539 149.18 88.1261 149.146 87.7468C149.146 86.5752 149.246 85.5375 149.436 84.6448C149.626 83.6406 149.726 82.6252 149.726 81.621C149.503 76.1759 149.403 71.4895 149.403 67.573C149.403 63.2994 149.425 59.7623 149.481 56.9505C149.615 50.1106 149.793 46.4173 150.016 45.8371C149.693 43.9625 149.525 42.1103 149.525 40.2803C149.525 39.1868 149.581 38.1268 149.693 37.0891C149.749 36.4308 149.793 35.7725 149.816 35.0918C150.574 35.0918 151.322 35.036 152.047 34.9133C152.772 34.7906 153.855 34.7124 155.294 34.6901C157.012 34.6678 160.203 34.6455 164.89 34.6455C171.729 34.7236 175.947 35.0695 177.554 35.672C177.632 36.1853 177.677 36.7656 177.677 37.3904C177.677 37.9037 177.654 38.4616 177.598 39.0418C177.543 39.6332 177.52 40.2022 177.52 40.7824C177.353 42.6905 176.271 43.7616 174.251 44.0071C173.247 44.141 172.209 44.208 171.149 44.208C170.056 44.208 168.94 44.1522 167.802 44.0295C166.664 43.9067 165.47 43.8509 164.254 43.8509C162.625 44.0183 160.996 44.0964 159.389 44.0964L159.099 56.5153C159.021 57.2741 158.976 58.1333 158.976 59.0929C158.976 60.3202 159.043 61.7038 159.177 63.2548C159.311 64.9731 159.378 66.513 159.378 67.8743C159.378 68.421 159.244 72.8061 158.965 81.0296L159.043 87.0327C159.099 88.0704 159.121 88.9519 159.121 89.6883C159.121 90.4247 159.088 91.1277 159.021 91.8083C158.954 92.489 158.686 92.9241 158.229 93.1138C157.838 93.2142 157.18 93.27 156.231 93.27Z" fill="#F3932B"/>
<path d="M179.562 93.27H179.127C178.022 93.27 177.018 93.125 176.137 92.846C175.69 90.0119 175.467 86.9211 175.467 83.5737C175.467 81.0966 175.59 78.4744 175.835 75.696C176.059 72.7615 176.17 70.1617 176.17 67.9077L176.003 63.0205V62.1167C176.003 59.5168 176.17 58.0998 176.505 57.8655C176.46 57.6088 176.438 57.2406 176.438 56.7831C176.438 56.4595 176.449 55.9463 176.483 55.2433C176.516 54.5404 176.583 53.6812 176.683 52.677C176.784 51.6727 176.884 50.9698 176.996 50.5681C177.71 50.1887 178.949 49.999 180.723 49.999C183.222 49.999 185.944 50.2557 188.868 50.7801C191.256 51.2041 192.963 51.7285 193.989 52.3534C195.451 53.3018 196.31 53.882 196.578 54.1052C197.113 54.5738 197.794 55.6673 198.642 57.3968C199.066 58.4233 199.278 59.6842 199.278 61.1682C199.278 61.224 199.267 61.6704 199.245 62.4961C199.222 63.3218 198.921 64.1475 198.352 64.9732C198.129 66.1448 197.515 67.4391 196.489 68.8673C195.473 70.2955 194.391 71.2998 193.264 71.8912C190.251 73.2413 187.027 74.0447 183.59 74.3013C183.412 75.0712 183.222 76.399 183.021 78.2847C182.597 82.1901 182.385 85.2585 182.385 87.4902L182.419 88.4609C182.419 89.03 182.407 89.4986 182.385 89.878V90.3355C182.385 91.1165 182.53 91.8864 182.82 92.634C181.95 92.9799 180.868 93.2031 179.562 93.27ZM183.412 66.8477C189.348 66.4907 192.371 64.6942 192.483 61.4695C192.416 59.5392 191.445 58.0998 189.56 57.1513C188.868 56.8724 187.875 56.6046 186.569 56.3703C185.264 56.1248 184.282 56.0132 183.646 56.0132L183.679 60.1529C183.679 62.3399 183.59 64.5826 183.412 66.8477Z" fill="#F3932B"/>
<path d="M205.604 93.3037L205.415 93.2925C205.024 93.2814 203.987 93.1698 202.302 92.9466C200.472 92.7235 199.468 92.5449 199.256 92.4222C199.178 92.2325 199.144 92.0205 199.155 91.775C199.178 90.9717 199.713 89.3091 200.762 86.7874C201.141 85.8724 201.409 85.1583 201.565 84.645C201.733 84.0313 201.978 83.1945 202.324 82.1345C203.206 79.4454 203.987 77.7493 204.645 77.0464C204.678 76.6112 204.846 75.9306 205.136 74.9933C205.727 73.1745 206.341 71.5566 206.988 70.1395C208.026 67.6959 209.644 64.2704 211.819 59.8518C214.363 54.6633 215.925 51.9184 216.494 51.6283C216.985 50.3674 217.599 49.4748 218.335 48.9727C219.094 49.6087 219.842 51.2489 220.567 53.8934C220.846 54.9088 220.991 55.6787 220.991 56.192C221.382 56.6941 221.861 57.888 222.43 59.7514C222.765 60.9564 223.111 61.8825 223.457 62.5297C223.647 63.2104 223.948 64.2592 224.383 65.6428L227.485 76.176C230.52 86.5419 232.026 92.0875 232.004 92.8127V92.8462C231.647 93.2033 231.29 93.4153 230.933 93.4599C230.721 93.4934 230.497 93.5045 230.252 93.5045C230.107 93.5045 229.94 93.4822 229.739 93.4376C229.549 93.4041 229.326 93.3818 229.08 93.3706L227.909 93.393C227.574 93.4264 227.273 93.4376 226.983 93.4264C226.403 93.4041 225.867 93.3037 225.354 93.1028C224.718 92.199 223.847 89.4319 222.732 84.8124C222.241 82.7147 221.794 81.1191 221.393 80.0144C220.958 80.0256 220.534 80.0479 220.11 80.1037C219.686 80.1483 219.206 80.1706 218.67 80.1483L218.335 80.1372C217.945 80.1037 217.432 80.0814 216.796 80.0591C215.022 80.0033 212.868 80.126 210.335 80.4161C209.443 82.101 208.26 85.1806 206.809 89.6662L205.604 93.3037ZM212.667 74.6809L219.73 74.8036C219.976 74.8148 220.098 74.7701 220.11 74.692L220.054 74.5023C219.362 71.4339 218.96 69.0907 218.849 67.4839C218.626 65.2523 218.235 63.8352 217.655 63.2215L216.952 65.018C216.16 66.8256 215.624 68.1646 215.345 69.046L214.453 70.809C213.493 72.6613 212.89 73.9444 212.667 74.6809Z" fill="#F3932B"/>
<path d="M262.13 97.3647C261.628 97.3647 261.237 97.32 260.958 97.2419C260.557 97.1192 260.356 96.7956 260.356 96.2823C260.356 96.0034 260.4 95.4789 260.512 94.709L260.724 93.2027H258.972C258.392 93.2027 257.789 93.1804 257.165 93.1469C256.908 93.1246 256.071 93.1023 254.665 93.0576C253.159 93.0576 251.809 93.0465 250.626 93.0242C249.466 93.0242 248.752 93.0353 248.517 93.0576C247.971 93.1023 247.223 93.1246 246.252 93.1469L242.76 93.2027L242.849 94.0507C242.972 95.0103 243.028 95.7356 243.028 96.2265C243.028 96.7733 242.816 97.108 242.392 97.2531C242.113 97.3312 241.722 97.3758 241.22 97.3758L239.68 97.32L238.899 97.3535L236.913 97.2642C236.835 96.5613 236.735 95.7914 236.612 94.9768C236.433 93.716 236.344 92.9014 236.344 92.5667C236.021 91.2054 235.864 89.6433 235.864 87.8914L235.831 86.4744C236.378 86.4744 236.913 86.4521 237.46 86.4186C237.806 86.3963 238.152 86.3851 238.52 86.3851H239.245C239.97 86.0838 240.707 85.5371 241.443 84.756C241.521 84.5775 241.633 84.3655 241.778 84.12C243.541 81.5648 244.545 77.1909 244.768 70.9758C244.869 68.0413 245.092 65.5195 245.449 63.4218C245.795 61.3241 246.051 60.1079 246.185 59.7843C246.085 58.5234 246.029 57.2849 246.029 56.0798C246.029 54.5958 246.107 53.1564 246.275 51.7728L246.431 50.1995H247.937C248.116 50.1995 248.316 50.1772 248.54 50.1437C248.763 50.099 248.997 50.0879 249.265 50.0879L252.311 50.1214C253.237 50.1214 254.777 50.1548 256.919 50.2106L259.485 50.1772C260.869 50.1772 261.762 50.2107 262.152 50.2776C262.543 50.3445 263.011 50.378 263.558 50.378C263.681 54.3726 263.736 58.4007 263.736 62.4399C263.736 66.8027 263.67 71.1767 263.524 75.5506L263.491 77.626L263.547 81.6094C263.547 82.5914 263.524 83.5844 263.491 84.5998V84.9569C263.491 85.4143 263.524 85.883 263.58 86.3405L265.176 86.374L266.258 86.4074C266.783 86.452 267.318 86.4632 267.887 86.4632L267.798 87.8803C267.742 89.6544 267.53 91.2054 267.162 92.5555C267.162 92.8791 266.916 94.4412 266.437 97.2642L264.473 97.3535H262.967L262.13 97.3647ZM256.607 86.3293L256.662 83.2497C256.662 82.8034 256.629 81.5872 256.573 79.5675C256.595 78.8646 256.64 78.1616 256.729 77.4698C256.808 76.778 256.852 76.0527 256.852 75.3163V74.9593C256.852 73.9104 256.93 72.8169 257.098 71.6676C257.243 70.6857 257.31 69.7596 257.31 68.8892C257.31 68.4652 257.287 68.0524 257.254 67.6507L256.863 57.0059L256.83 56.9724C256.004 56.872 255.112 56.8162 254.152 56.8162H253.795L252.735 56.9055C252.59 58.7577 252.489 59.695 252.434 59.7396L251.742 66.8808C251.519 69.4918 251.184 72.192 250.715 74.9593C250.559 75.6622 250.369 76.6441 250.169 77.9161C249.722 81.4533 249.008 84.2428 247.993 86.2624H249.588V86.2958C250.749 86.2735 251.932 86.2624 253.114 86.2624L256.607 86.3293Z" fill="#F3932B"/>
<path d="M279.268 94.4529H277.818L276.869 93.9731L277.349 91.5629V88.2044C277.349 87.7246 279.112 87.0885 282.638 86.274C283.91 85.1024 284.535 83.8304 284.535 82.4468C284.535 79.8135 280.696 70.53 273.009 54.5962C272.373 52.5543 272.06 51.2711 272.06 50.7355L273.009 50.2557H277.818C278.866 50.4343 281.098 55.2323 284.523 64.6608C285.059 64.6608 286.342 66.9036 288.384 71.4003H288.864C289.701 71.4003 292.1 65.4754 296.083 53.6143C296.083 51.5724 297.835 50.3004 301.338 49.7871C303.592 50.2223 304.719 50.7132 304.719 51.2377C296.083 75.9863 290.326 89.4206 287.436 91.5629C285.182 93.4933 282.459 94.4529 279.268 94.4529Z" fill="#F3932B"/>
<path d="M329.378 93.0244C325.818 93.2364 322.203 92.645 318.532 91.2503C317.339 90.8151 316.033 90.101 314.583 89.1079C311.425 86.9433 309.483 84.3434 308.769 81.2973C308.669 80.8621 308.524 80.4604 308.334 80.0922C307.62 78.8536 307.096 76.5328 306.75 73.1407C306.705 72.7167 306.672 72.3038 306.649 71.8798C306.404 67.6175 307.185 63.8237 308.993 60.4986C310.8 57.1735 314.08 54.4175 318.834 52.2305C320.73 51.3155 322.438 50.8134 323.977 50.7242H325.004C325.941 50.6684 326.789 50.4898 327.526 50.1886C328.039 50.0547 328.541 49.9765 329.043 49.9542C329.545 49.9208 330.259 49.9096 331.208 49.8984C332.145 49.8984 333.149 49.9096 334.22 49.9654C335.291 50.01 336.05 50.0993 336.519 50.2332C336.764 50.9361 336.943 51.8065 337.066 52.8218C337.088 53.2012 337.121 53.893 337.155 54.9084C337.199 55.9238 336.954 56.7941 336.441 57.5194C336.318 57.5417 336.173 57.564 335.994 57.5752C335.559 57.5975 334.901 57.564 334.031 57.4524C331.989 57.1735 330.103 57.0842 328.385 57.1847C327.068 57.2628 325.718 57.5194 324.334 57.9657L324.223 58.0327C322.884 58.4344 321.612 58.9476 320.396 59.5837C318.856 60.3759 317.774 61.6591 317.127 63.4444C316.803 64.4263 316.524 65.0176 316.301 65.2073L316.334 65.7764C316.379 66.5798 316.379 67.5505 316.323 68.6998C316.279 69.6482 316.267 70.4739 316.29 71.1657C316.513 73.1965 317.004 75.0487 317.763 76.7113C318.019 77.4031 318.253 78.0614 318.454 78.6863C319.046 79.1103 319.548 79.5343 319.983 79.9471C320.418 80.36 320.864 80.7394 321.333 81.0853C321.79 81.4312 322.393 81.7101 323.129 81.9333C324.312 82.2903 326.376 82.4577 329.333 82.4465C329.791 82.4354 330.203 82.4466 330.572 82.4689C331.922 82.5135 333.049 82.5358 333.941 82.547C335.102 82.5358 335.961 82.5693 336.508 82.6474C337.054 82.7255 337.411 82.904 337.59 83.183C337.768 83.4619 337.891 83.9306 337.969 84.5889C338.059 85.5039 338.204 86.4746 338.382 87.4788C338.538 88.3492 338.639 89.1972 338.706 90.0229C338.717 90.1679 338.717 90.2907 338.728 90.4134C338.75 90.7705 338.728 91.0382 338.65 91.2056C338.315 91.585 337.835 91.8416 337.222 91.9644C336.608 92.0871 335.983 92.1764 335.358 92.2098C334.734 92.2433 334.164 92.3103 333.674 92.3996C332.256 92.7231 330.817 92.9351 329.378 93.0244Z" fill="#F3932B"/>
<path d="M360.742 94.4416C355.453 94.4416 351.448 92.422 348.725 88.3939C347.833 87.0103 346.907 84.801 345.936 81.7549C344.965 78.7199 344.251 75.7184 343.771 72.7615C343.593 71.5006 343.492 70.4071 343.492 69.4587C343.492 68.1978 343.66 67.2494 344.006 66.5911C343.928 66.1224 343.883 65.5757 343.883 64.9397C343.883 63.5561 344.117 61.503 344.586 58.7804C345.054 56.0578 345.824 53.1902 346.884 50.1775C347.944 47.1648 349.06 45.2457 350.243 44.4088C350.845 42.6012 352.664 40.8159 355.699 39.0529C358.734 37.29 361.657 36.2634 364.458 35.9733L366.622 35.8171C367.403 35.739 368.084 35.6943 368.664 35.6943C369.211 35.7167 369.814 35.8505 370.472 36.0849C372.045 36.6651 373.663 37.5019 375.337 38.5954C377.613 40.1129 378.896 41.3292 379.186 42.2441C380.201 43.0029 381.072 44.2638 381.797 46.0379C382.511 47.8009 383.114 49.4746 383.582 51.059C384.051 52.6435 384.408 53.5807 384.642 53.8709C384.877 55.2098 385.156 56.5265 385.468 57.832C386.171 60.5545 386.539 63.3552 386.573 66.234C386.517 66.658 386.439 67.1043 386.338 67.5841C386.238 68.0639 386.16 68.4656 386.104 68.778C386.104 69.3024 386.149 69.6707 386.238 69.8938C386.327 70.117 386.405 70.4741 386.45 70.9762C386.428 71.9916 386.227 73.0069 385.858 74C385.68 74.5802 385.513 75.1381 385.39 75.6849C384.843 78.5079 383.694 81.3643 381.953 84.2431C380.213 87.1219 378.048 89.2196 375.459 90.5251C373.418 92.0203 370.662 93.0915 367.18 93.7498C364.86 94.2184 362.706 94.4416 360.742 94.4416ZM364.48 84.3547C370.862 84.3547 374.533 81.409 375.471 75.5175C375.571 74.6583 375.716 73.6876 375.906 72.6164C376.408 69.5591 376.653 67.3833 376.653 66.1001C376.653 58.4345 374.143 51.4272 369.111 45.1006C368.642 45.0002 368.229 44.8551 367.894 44.6654C367.37 44.3753 366.812 44.2303 366.21 44.2303C365.741 44.2303 365.105 44.3642 364.324 44.6208C362.025 45.4353 360.53 46.1048 359.85 46.6181C358.064 48.4034 356.659 51.1371 355.61 54.8193C354.561 58.5126 354.036 61.6034 354.036 64.0805L354.081 68.4768C354.081 70.8311 354.003 73.0739 353.847 75.1939C354.081 75.3724 354.583 76.3097 355.342 77.9834C356.201 80.0477 356.937 81.4536 357.54 82.1789C358.589 83.2835 360.441 83.9753 363.119 84.2543C363.576 84.3324 364.034 84.3547 364.48 84.3547Z" fill="#F3932B"/>
<path d="M420.983 93.2697C417.747 93.2697 415.717 93.2139 414.869 93.1135C414.422 92.2432 413.898 90.9935 413.318 89.3755C412.838 88.1035 412.28 86.6864 411.644 85.1243C411.198 84.1982 410.227 82.4017 408.743 79.7238C406.947 76.4657 405.362 73.5199 404.012 70.8978L403.856 74.1559C403.956 74.7696 404.012 75.7962 404.012 77.2579C404.012 79.7796 403.956 82.1451 403.856 84.3656C403.644 89.7438 403.421 92.6449 403.175 93.0689C402.115 93.1805 400.91 93.2251 399.56 93.2251C397.306 93.2251 395.588 93.1581 394.394 93.0242C393.992 89.4536 393.803 85.8719 393.803 82.3013C393.803 81.5649 393.892 78.2733 394.082 72.4488C394.238 68.9228 394.316 63.2322 394.316 55.3657C394.316 51.8733 394.394 49.1619 394.55 47.265C394.628 46.3389 394.673 44.6986 394.673 42.3331C394.673 39.7333 394.762 37.948 394.952 36.9661L397.976 36.3301C398.634 36.4417 399.27 36.4863 399.884 36.4863C400.118 36.4863 400.364 36.4751 400.598 36.4417C400.832 36.4193 401.1 36.397 401.39 36.397C402.216 36.397 403.12 36.5421 404.135 36.8322C404.291 37.2562 404.392 37.8141 404.414 38.5059L404.369 41.7194C404.369 42.3777 404.414 42.9245 404.492 43.3485C404.514 43.9287 404.537 44.5424 404.537 45.1784C404.537 46.4727 404.481 47.9121 404.38 49.4743C404.302 50.7463 404.247 51.9067 404.224 52.9667C404.358 53.2011 404.436 53.547 404.459 54.0045C404.537 54.7186 404.581 56.5262 404.581 59.4049C405.831 57.2291 407.304 54.183 409.033 50.2665C410.54 46.8187 411.934 43.8952 413.206 41.4851C414.132 39.6887 414.679 38.4613 414.835 37.8252L415.036 37.1892C415.192 36.9215 415.761 36.7652 416.743 36.7094C417.379 36.7094 417.959 36.7876 418.495 36.9438C418.729 36.8099 419.466 36.7206 420.682 36.6648C421.798 36.6648 423.204 36.7429 424.888 36.8991C424.833 37.7471 424.609 38.5059 424.208 39.1642C423.806 39.8225 423.282 40.5701 422.623 41.3847C422.088 42.0988 421.653 42.8018 421.307 43.4936C420.805 44.5759 420.247 45.4016 419.633 45.9595C418.941 47.9233 417.837 50.5566 416.297 53.8706C413.563 59.617 412.124 63.3438 411.968 65.0398C412.235 65.5196 413.262 67.6843 415.07 71.5561C417 75.6846 418.026 78.0166 418.127 78.5522C418.417 78.8423 419.6 81.1855 421.686 85.5706C423.761 89.9557 424.855 92.4775 424.966 93.1358C423.817 93.2251 422.489 93.2697 420.983 93.2697Z" fill="#F3932B"/>
<path d="M66.0541 132.034C57.139 132.034 48.4917 130.293 40.3577 126.845C32.4914 123.52 25.4397 118.756 19.3699 112.697C13.3112 106.638 8.54684 99.575 5.22182 91.7086C1.77407 83.5632 0.0334511 74.9157 0.0334511 66.0116C0.0334511 57.0963 1.77407 48.4488 5.22182 40.3145C8.54684 32.4481 13.3112 25.3962 19.3699 19.3262C25.4286 13.2674 32.4914 8.50287 40.3577 5.17776C48.5029 1.72992 57.1502 -0.0107422 66.0541 -0.0107422C74.9691 -0.0107422 83.6164 1.72992 91.7504 5.17776C99.6167 8.50287 106.668 13.2674 112.738 19.3262C118.797 25.385 123.561 32.4481 126.886 40.3145C130.334 48.4599 132.075 57.1074 132.075 66.0116C132.075 74.9269 130.334 83.5744 126.886 91.7086C123.561 99.575 118.797 106.627 112.738 112.697C106.68 118.756 99.6167 123.52 91.7504 126.845C83.6053 130.293 74.958 132.034 66.0541 132.034Z" fill="white"/>
<path d="M109.402 80.1819C104.839 72.4717 98.5567 66.0892 94.0824 62.7641C89.6082 59.439 89.5189 49.4525 89.5189 49.4525V41.3629C89.5189 41.3629 89.4073 40.2806 90.4562 39.3657C91.505 38.4507 96.1801 34.4226 96.8831 30.5508C97.586 26.6789 96.2471 20.9102 93.201 18.0537C90.1549 15.1973 86.6067 13.7355 82.0432 14.2488C77.4797 14.7509 74.11 18.3104 74.11 18.3104H66.0429H57.987C57.987 18.3104 54.6285 14.7621 50.0538 14.2488C45.4903 13.7467 41.931 15.1973 38.896 18.0537C35.8611 20.9102 34.5222 26.6789 35.214 30.5508C35.9169 34.4226 40.592 38.4507 41.6409 39.3657C42.6897 40.2806 42.5781 41.3629 42.5781 41.3629V49.4525C42.5781 49.4525 42.4777 59.439 38.0146 62.7641C33.5403 66.0892 27.2585 72.4717 22.695 80.1819C18.1314 87.8921 15.3643 102.766 15.3643 102.766C32.1121 129.244 66.0429 129.434 66.0429 129.434C66.0429 129.434 99.9961 129.244 116.733 102.766C116.722 102.766 113.966 87.881 109.402 80.1819Z" fill="#F3932B"/>
<path d="M32.9266 104.507C32.9266 104.507 32.1009 112.496 35.4036 116.881C38.7063 121.255 41.9421 122.907 45.5572 120.999C49.1723 119.091 51.5154 118.086 49.362 114.404C47.2085 110.722 42.009 104.764 39.0187 102.856C36.0284 100.948 33.5626 102.03 32.9266 104.507Z" fill="white"/>
<path d="M44.408 102.9C44.408 102.9 44.3968 102.9 44.3968 102.911C44.2853 102.967 42.6116 103.804 44.0844 105.522C45.6019 107.296 46.4945 106.984 47.2532 106.415C47.9896 105.868 51.8725 102.387 52.754 99.9541C52.7875 99.8537 52.6982 99.7421 52.5866 99.7756C51.5043 100.043 47.0078 101.237 44.408 102.9Z" fill="white"/>
<path d="M39.6436 98.9835C39.6436 98.9835 37.9365 99.7422 39.6436 101.394C41.3507 103.045 41.931 102.978 43.4819 102.342C44.977 101.728 49.4067 98.9723 50.7791 97.12C50.846 97.0196 50.7791 96.8857 50.6563 96.8857C49.2951 96.9081 43.1806 97.0754 39.6436 98.9835Z" fill="white"/>
<path d="M47.521 107.799L47.5098 107.81C47.4206 107.866 46.6172 108.435 47.521 109.584C48.4694 110.789 49.6186 111.492 50.634 110.477C51.6159 109.495 55.3984 105.746 55.9228 103.503C55.9451 103.402 55.8558 103.313 55.7554 103.324C54.8851 103.492 51.5043 104.362 47.521 107.799Z" fill="white"/>
<path d="M50.9353 111.826C50.9353 111.826 49.284 113.065 50.1766 114.136C51.0581 115.218 51.6383 116.546 53.2227 115.464C54.7401 114.437 58.1656 109.718 58.69 107.408C58.7234 107.285 58.5896 107.185 58.4668 107.24C57.3734 107.787 53.2338 109.885 50.9353 111.826Z" fill="white"/>
<path d="M89.2288 112.206C89.2288 112.206 98.4228 108.089 101.101 101.774C103.779 95.4582 103.544 90.9057 99.215 88.172C94.8858 85.4382 92.3083 83.5302 89.6751 88.172C87.0419 92.8137 83.8173 102.198 83.6276 106.627C83.4267 111.057 86.1492 113.066 89.2288 112.206Z" fill="white"/>
<path d="M80.2133 100.702C80.2579 100.724 80.3137 100.758 80.3584 100.78C80.6931 100.992 82.4672 101.952 83.3375 99.4522C84.3082 96.685 83.4156 95.9262 82.311 95.4576C81.9874 95.3237 81.184 95.0336 80.1352 94.7212C77.3681 93.8955 75.5605 97.5553 77.9036 99.2514C78.6847 99.7981 79.4657 100.3 80.2133 100.702Z" fill="white"/>
<path d="M79.0306 108.357C79.0306 108.357 80.9274 109.74 81.6415 106.85C82.3556 103.96 81.9316 103.38 80.2691 102.086C80.2468 102.063 80.2133 102.052 80.191 102.019C76.2634 98.0912 74.7348 104.697 77.3457 107.163C78.1491 107.921 78.1826 107.843 79.0306 108.357Z" fill="white"/>
<path d="M83.6722 94.2975C83.6722 94.2975 84.8884 94.967 85.6025 93.1817C86.3166 91.3964 86.2608 89.9905 84.6206 89.2541C83.2371 88.6292 79.8005 87.4353 79.7112 90.3587C79.6108 93.059 80.2356 93.2933 83.6722 94.2975Z" fill="white"/>
<path d="M85.8926 88.0602C85.8926 88.0602 88.2692 89.0756 88.8829 87.4353C89.4966 85.7951 90.59 84.3445 88.4254 83.2957C86.3277 82.2803 78.8855 81.5104 76.1407 82.4477C76.0291 82.4811 76.018 82.6262 76.1072 82.6932C77.2007 83.4296 82.244 86.7435 85.8926 88.0602Z" fill="white"/>
<path d="M55.1195 71.9032L53.4235 63.1553C53.4012 63.0661 53.3566 62.988 53.2785 62.9433C52.4974 62.4524 51.8056 63.0549 51.9284 63.7021L53.5463 72.0037C53.5797 72.1599 53.7025 72.2603 53.8587 72.2715L54.7959 72.3049C54.9968 72.3049 55.1641 72.1152 55.1195 71.9032ZM53.9033 73.8671C52.2966 74.1126 50.6341 74.1572 49.2282 73.9675C47.9897 73.8113 47.164 73.4207 46.8851 73.2199L47.0859 73.3315L47.0636 73.3203C46.8962 73.1976 46.8739 72.9521 47.019 72.8071C47.588 72.2492 48.9604 71.3788 51.9284 70.6201C52.0957 70.5754 52.2073 70.4081 52.1738 70.2407L52.0065 69.3369C51.973 69.1472 51.7833 69.0356 51.6048 69.0803C48.0455 69.9618 46.2602 71.0218 45.68 72.45C45.4569 73.0079 45.5238 73.4765 45.6354 74.0791L54.1711 117.997C54.4947 119.749 53.0218 121.412 52.3635 122.048C51.7052 122.695 51.6271 123.721 52.185 124.435C53.7025 126.377 57.909 126.701 64.6817 125.384C71.6219 124.034 75.4155 122.103 75.9511 119.649C76.1296 118.856 75.7391 118.042 75.0027 117.674C73.1282 116.725 71.8785 115.587 71.6665 114.639L63.1531 70.051C63.142 70.0064 63.142 69.9729 63.1308 69.9283V69.906C63.0638 69.6382 62.9188 69.3815 62.7068 69.1584C61.6803 68.0649 59.4153 67.7748 55.8113 68.2769C55.6216 68.2992 55.4989 68.4777 55.5323 68.6674L55.7109 69.5601C55.7443 69.7274 55.9117 69.8502 56.0791 69.8279C60.2409 69.2588 61.3121 69.9729 61.5687 70.2407C61.591 70.263 61.6022 70.2742 61.6022 70.2965C61.6022 70.2965 61.6022 70.33 61.591 70.3635C61.022 71.8363 55.4542 73.577 55.4542 73.577C54.4054 73.8559 53.9033 73.8671 53.9033 73.8671ZM55.1976 80.5508L55.3761 81.4434C55.4096 81.5885 55.5212 81.7001 55.6774 81.7112L56.6147 81.7893C56.8378 81.8116 57.0052 81.6108 56.9717 81.3988L56.782 80.4392C56.7485 80.283 56.6146 80.1714 56.4584 80.1714L55.5323 80.1491C55.3203 80.1491 55.1641 80.3388 55.1976 80.5508ZM54.9521 75.3065L55.7443 75.1168C57.8978 74.6035 60.1182 73.6885 61.5575 72.6285C61.7584 72.4835 62.0373 72.5951 62.082 72.8294L70.1267 114.906V114.918C70.1379 115.018 70.4168 117.663 63.4432 119.024C56.425 120.385 55.7109 117.729 55.7109 117.707L47.5434 75.7082C47.4987 75.4738 47.7107 75.273 47.9451 75.3288C49.6857 75.7416 52.0511 75.7416 54.2046 75.4069M54.5281 77.0918L54.8071 78.5088C54.8406 78.6539 54.9633 78.7655 55.1084 78.7766L56.0456 78.8324C56.2576 78.8436 56.4361 78.6539 56.3915 78.4419L56.1014 76.969C56.0679 76.8128 55.934 76.7012 55.7778 76.7012H54.8517C54.6397 76.6901 54.4947 76.8797 54.5281 77.0918ZM55.789 83.5634L56.1014 85.1925C56.0902 85.2483 56.0902 85.3376 56.0791 85.3934L54.4054 89.0978C53.7694 90.5038 53.9256 92.2779 53.9703 92.9585C53.9703 93.0478 53.9814 93.1036 53.9926 93.1594L57.3064 110.22L58.0094 113.679C58.3664 115.074 58.8797 115.476 59.5938 116.011C60.3302 116.591 61.1893 116.881 62.1601 116.87C62.439 116.87 62.718 116.848 63.0081 116.792L63.0862 116.781C63.0973 116.781 63.0973 116.781 63.1085 116.781C63.1196 116.781 63.1196 116.781 63.1308 116.781C64.5144 116.513 65.4293 115.52 66.1099 114.505C66.9356 113.277 66.1992 110.053 65.976 108.87L62.5952 91.4857C62.5841 91.4299 62.5729 91.3741 62.5394 91.296C62.3163 90.6488 61.803 88.9416 60.6872 87.8816C57.697 85.0252 60.6426 87.837 57.7527 85.0698C57.7304 85.014 57.6858 84.9471 57.6523 84.8913L57.3734 83.4742C57.3399 83.3291 57.2172 83.2175 57.061 83.2064L56.1237 83.1729C55.9117 83.1617 55.7443 83.3626 55.789 83.5634ZM64.347 108.982C64.6371 110.488 63.6552 111.938 62.1489 112.24L62.082 112.251C60.7542 112.507 59.471 111.771 58.9801 110.566C58.9689 110.544 58.9689 110.521 58.9578 110.499L55.5547 92.9697C55.5547 92.9474 55.5547 92.9139 55.5435 92.8916C55.5658 92.4564 55.6662 88.964 57.0052 88.1271C57.2395 87.982 57.6412 87.8928 57.909 87.9486C59.4934 88.3168 60.9104 91.5191 61.0331 91.72C61.0331 91.7312 61.0443 91.7535 61.0443 91.7535L64.347 108.982ZM74.4113 119.325C74.0431 121.01 70.2829 122.706 64.3693 123.855C58.5784 124.982 54.4724 124.837 53.4124 123.476C53.3454 123.387 53.3566 123.264 53.4458 123.175C54.0818 122.561 54.9521 121.546 55.4319 120.296C55.6216 120.229 55.7109 120.195 55.9006 120.128C57.6077 121.088 60.2409 121.233 63.7222 120.564C67.1476 119.894 69.513 118.812 70.7516 117.339C70.8073 117.272 70.8631 117.205 70.9078 117.138C71.1086 117.127 71.209 117.116 71.4099 117.105C72.3025 117.997 73.4629 118.667 74.2774 119.08C74.389 119.135 74.4336 119.225 74.4113 119.325Z" fill="white"/>
<path d="M79.4211 53.6261C79.1533 53.0013 76.308 48.605 75.1588 46.9313C74.0095 45.2576 72.2355 45.4919 72.2355 45.4919L66.0317 45.291L59.8392 45.4919C59.8392 45.4919 58.0651 45.2576 56.9158 46.9313C55.7666 48.605 52.9102 53.0013 52.6535 53.6261C52.3858 54.251 51.8948 56.3821 53.2114 57.9554C54.5281 59.5287 58.132 63.077 60.1962 63.992C62.2604 64.9069 63.0191 64.9069 66.0206 64.9069C66.0206 64.9069 66.0206 64.9069 66.0317 64.9069C66.0317 64.9069 66.0317 64.9069 66.0429 64.9069C69.0443 64.9069 69.8031 64.9069 71.8672 63.992C73.9314 63.077 77.5466 59.5287 78.852 57.9554C80.1798 56.3821 79.6889 54.251 79.4211 53.6261ZM74.8129 57.4645C74.5451 59.2051 73.2731 60.2875 71.4656 60.4214C69.658 60.5553 68.6092 59.1717 67.5269 58.4241C66.4446 57.6653 66.0317 57.6653 66.0317 57.6653C66.0317 57.6653 65.6189 57.6653 64.5366 58.4241C63.4543 59.1828 62.4054 60.5553 60.5979 60.4214C58.7903 60.2875 57.5183 59.2051 57.2505 57.4645C56.9828 55.7238 57.8084 54.9651 58.3998 54.5746C58.9912 54.184 59.6495 54.9316 59.683 55.4002C59.7164 55.8577 59.3594 56.2259 59.3594 56.2259C59.3594 56.2259 58.9689 56.1925 59.1585 57.3417C59.3482 58.491 60.0065 58.4575 61.1558 58.491C62.305 58.5245 63.9787 56.7169 64.5366 56.2259C65.0945 55.735 65.2953 55.4337 65.2953 55.4337C65.2953 55.4337 65.2953 52.845 65.2953 52.5772C65.2953 52.3094 63.6216 50.937 63.1642 50.7027C62.7067 50.4684 62.372 49.8547 62.5728 49.1294C62.7737 48.4041 63.5547 48.5715 63.5547 48.5715H66.0317H68.5088C68.5088 48.5715 69.301 48.4041 69.4906 49.1294C69.6915 49.8547 69.3567 50.4795 68.8993 50.7027C68.4418 50.937 66.7681 52.3094 66.7681 52.5772C66.7681 52.845 66.7681 55.4337 66.7681 55.4337C66.7681 55.4337 66.969 55.7238 67.5269 56.2259C68.0848 56.7169 69.7584 58.5245 70.9077 58.491C72.0569 58.4575 72.7152 58.491 72.9049 57.3417C73.1058 56.1925 72.7041 56.2259 72.7041 56.2259C72.7041 56.2259 72.347 55.8689 72.3805 55.4002C72.414 54.9428 73.0723 54.184 73.6637 54.5746C74.255 54.9651 75.0807 55.7238 74.8129 57.4645Z" fill="white"/>
<path d="M55.9117 32.1914C53.5016 32.1914 51.549 34.0325 51.549 36.3087C51.549 38.585 53.5016 40.4261 55.9117 40.4261C58.3217 40.4261 60.2744 38.585 60.2744 36.3087C60.2744 34.0325 58.3217 32.1914 55.9117 32.1914ZM58.7011 37.8374C58.2771 38.0382 57.9424 37.5138 57.4849 37.1121C57.0274 36.7216 56.1013 36.8443 55.7778 37.1456C55.4542 37.4357 55.2087 38.0159 54.7959 37.8374C54.7959 37.8374 53.9144 37.67 54.0706 36.7885C54.238 35.907 54.9521 35.1148 56.2687 35.0144C57.5853 34.914 58.8573 35.7062 59.0247 36.4203C59.192 37.1456 59.1251 37.6366 58.7011 37.8374Z" fill="white"/>
<path d="M71.7446 36.3087C71.7446 38.585 73.6972 40.4261 76.1072 40.4261C78.5173 40.4261 80.4699 38.585 80.4699 36.3087C80.4699 34.0325 78.5173 32.1914 76.1072 32.1914C73.6972 32.1914 71.7446 34.0325 71.7446 36.3087ZM72.9942 36.4203C73.1616 35.695 74.4336 34.914 75.7502 35.0144C77.0668 35.1148 77.7809 35.8959 77.9483 36.7885C78.1156 37.67 77.223 37.8374 77.223 37.8374C76.8102 38.0271 76.5647 37.4468 76.2411 37.1456C75.9176 36.8555 74.9915 36.7216 74.534 37.1121C74.0765 37.5027 73.7418 38.0271 73.3178 37.8374C72.8938 37.6366 72.8269 37.1456 72.9942 36.4203Z" fill="white"/>
<path d="M69.3679 28.4205C69.3679 28.4205 68.9439 28.2866 69.1671 26.546C69.4014 24.8053 71.5325 24.7049 72.4475 25.4636C73.3624 26.2224 72.3471 28.0188 71.7445 28.4205C71.142 28.8222 69.8254 28.8445 69.3679 28.4205Z" fill="white"/>
<path d="M62.6064 28.4205C62.6064 28.4205 63.0304 28.2866 62.8072 26.546C62.5729 24.8053 60.4418 24.7049 59.5268 25.4636C58.6119 26.2224 59.6272 28.0188 60.2298 28.4205C60.8323 28.8222 62.1489 28.8445 62.6064 28.4205Z" fill="white"/>
<path d="M66.0541 130.316C57.3733 130.316 48.9492 128.62 41.0272 125.261C33.373 122.026 26.4886 117.384 20.5861 111.481C14.6837 105.579 10.042 98.694 6.80627 91.0395C3.44778 83.1061 1.75179 74.693 1.75179 66.012C1.75179 57.331 3.44778 48.9067 6.80627 40.9844C10.042 33.33 14.6837 26.4455 20.5861 20.5428C26.4886 14.6402 33.373 9.99846 41.0272 6.76262C48.9604 3.40404 57.3733 1.70801 66.0541 1.70801C74.7349 1.70801 83.159 3.40404 91.081 6.76262C98.7352 9.99846 105.62 14.6402 111.522 20.5428C117.425 26.4455 122.066 33.33 125.302 40.9844C128.66 48.9178 130.356 57.331 130.356 66.012C130.356 74.693 128.66 83.1173 125.302 91.0395C122.066 98.694 117.425 105.579 111.522 111.481C105.62 117.384 98.7352 122.026 91.081 125.261C83.1478 128.62 74.7349 130.316 66.0541 130.316ZM66.0541 4.36363C32.0675 4.36363 4.40735 32.0133 4.40735 66.012C4.40735 99.9995 32.0563 127.66 66.0541 127.66C100.052 127.66 127.701 100.011 127.701 66.012C127.69 32.0245 100.041 4.36363 66.0541 4.36363Z" fill="#F3932B"/>
<path d="M27.3923 41.4189C24.6921 41.4189 22.494 39.2207 22.494 36.5205C22.494 33.8202 24.6921 31.6221 27.3923 31.6221C30.0925 31.6221 32.2906 33.8202 32.2906 36.5205C32.2906 39.2207 30.0925 41.4189 27.3923 41.4189ZM27.3923 32.7602C25.317 32.7602 23.6321 34.4451 23.6321 36.5205C23.6321 38.5959 25.317 40.2807 27.3923 40.2807C29.4677 40.2807 31.1525 38.5959 31.1525 36.5205C31.1525 34.4451 29.4677 32.7602 27.3923 32.7602Z" fill="#F3932B"/>
<path d="M32.2236 48.4708C30.5723 48.4708 29.2222 47.1207 29.2222 45.4693C29.2222 43.8179 30.5723 42.4678 32.2236 42.4678C33.875 42.4678 35.2251 43.8179 35.2251 45.4693C35.2251 47.1318 33.875 48.4708 32.2236 48.4708ZM32.2236 43.617C31.1971 43.617 30.3714 44.4539 30.3714 45.4693C30.3714 46.4958 31.2083 47.3215 32.2236 47.3215C33.239 47.3215 34.0758 46.4847 34.0758 45.4693C34.0758 44.4539 33.2501 43.617 32.2236 43.617Z" fill="#F3932B"/>
<path d="M25.0604 60.1313C22.9627 60.1313 21.2556 58.4241 21.2556 56.3264C21.2556 54.2287 22.9627 52.5215 25.0604 52.5215C27.158 52.5215 28.8652 54.2287 28.8652 56.3264C28.8652 58.4241 27.158 60.1313 25.0604 60.1313ZM25.0604 53.6596C23.5876 53.6596 22.3937 54.8535 22.3937 56.3264C22.3937 57.7993 23.5876 58.9932 25.0604 58.9932C26.5332 58.9932 27.7271 57.7993 27.7271 56.3264C27.7271 54.8535 26.5332 53.6596 25.0604 53.6596Z" fill="#F3932B"/>
<path d="M102.149 44.4319C100.13 44.4319 98.4786 42.7805 98.4786 40.7609C98.4786 38.7413 100.13 37.0898 102.149 37.0898C104.169 37.0898 105.82 38.7413 105.82 40.7609C105.82 42.7805 104.169 44.4319 102.149 44.4319ZM102.149 38.228C100.755 38.228 99.6167 39.3661 99.6167 40.7609C99.6167 42.1556 100.755 43.2937 102.149 43.2937C103.544 43.2937 104.682 42.1556 104.682 40.7609C104.682 39.3549 103.544 38.228 102.149 38.228Z" fill="#F3932B"/>
<path d="M96.4367 52.4206C95.2986 52.4206 94.3837 51.4945 94.3837 50.3675C94.3837 49.2294 95.3098 48.3145 96.4367 48.3145C97.5748 48.3145 98.4897 49.2406 98.4897 50.3675C98.4897 51.5056 97.5637 52.4206 96.4367 52.4206ZM96.4367 49.4526C95.9346 49.4526 95.5218 49.8654 95.5218 50.3675C95.5218 50.8696 95.9346 51.2825 96.4367 51.2825C96.9388 51.2825 97.3517 50.8696 97.3517 50.3675C97.3517 49.8654 96.9388 49.4526 96.4367 49.4526Z" fill="#F3932B"/>
<path d="M5.43386 82.6822C6.67237 83.8649 8.11173 82.1131 8.81467 81.1981C9.61803 80.1493 10.254 79 10.9346 77.873C11.5037 76.9246 12.162 76.0431 12.9654 75.2843C13.7464 74.5479 14.6837 74.0012 15.6544 73.566C18.2765 72.3944 21.1775 71.7584 23.9893 71.2005C30.7732 69.8392 37.7245 69.1474 43.984 65.945C44.7985 65.521 44.0844 64.2936 43.2587 64.7177C37.9923 67.4179 32.1344 68.2882 26.3659 69.3148C23.4872 69.828 20.6084 70.3971 17.819 71.2786C15.487 72.015 13.222 72.9188 11.5149 74.7264C10.2987 75.9985 9.51761 77.5606 8.59151 79.0335C8.1452 79.7364 7.67657 80.4282 7.11868 81.0419C6.87321 81.3097 6.71701 81.4548 6.47153 81.5998C6.43806 81.611 6.2707 81.6891 6.43806 81.6221C6.24838 81.7002 6.48269 81.6444 6.38227 81.6444C6.35996 81.6444 6.49385 81.7114 6.46038 81.6668C5.77975 81.0419 4.76439 82.0461 5.43386 82.6822Z" fill="#F3932B"/>
<path d="M6.60538 88.1266C8.35715 88.1712 9.45061 86.0066 10.1201 84.6899C10.9792 83.005 11.738 81.2309 12.4521 79.4791C12.9095 78.3633 13.4005 77.2698 14.1257 76.299C14.8733 75.2948 15.9556 74.5695 17.0714 74.0339C18.2095 73.476 19.4703 73.1636 20.6977 72.8735C22.0366 72.5499 23.3867 72.2486 24.7368 71.992C28.3519 71.3002 32.0451 70.9878 35.7383 70.999C36.6533 70.999 36.6533 69.5707 35.7383 69.5707C32.7592 69.5596 29.7801 69.7827 26.8344 70.2067C24.1008 70.5972 21.3336 71.1552 18.6893 71.9251C16.1899 72.6615 13.936 73.9447 12.5078 76.1763C11.8495 77.214 11.4032 78.3744 10.9346 79.5014C10.5775 80.3717 10.1759 81.2198 9.7965 82.0789C9.33903 83.0943 8.88156 84.1097 8.31252 85.0693C8.05589 85.4933 7.77694 85.9061 7.43105 86.2632C7.27484 86.4306 7.16326 86.5198 6.97358 86.6203C6.862 86.6872 6.7839 86.6984 6.63885 86.6984C5.67928 86.676 5.67928 88.0931 6.60538 88.1266Z" fill="#F3932B"/>
<path d="M92.2637 63.9365C93.1228 62.9323 93.9708 61.9169 94.8969 60.9684C95.8453 60.0088 96.8941 59.2278 98.0769 58.5806C100.61 57.197 103.388 56.6056 106.189 56.0031C108.967 55.4005 111.834 54.7757 114.434 53.6153C116.532 52.678 118.217 51.1382 119.611 49.3417C121.542 46.8423 123.204 44.1532 124.822 41.4418C125.302 40.6496 124.063 39.9355 123.595 40.7165C122.055 43.2829 120.493 45.8158 118.696 48.2148C117.324 50.0447 115.695 51.5064 113.597 52.4437C112.359 53.0016 111.02 53.3475 109.714 53.6934C108.253 54.0951 106.769 54.4298 105.285 54.7422C102.473 55.3448 99.7617 56.0477 97.2177 57.4313C94.7853 58.7591 93.0559 60.8569 91.2706 62.9323C90.6569 63.6241 91.6612 64.6394 92.2637 63.9365Z" fill="#F3932B"/>
<path d="M94.4952 65.3866C98.1773 63.155 102.016 61.1912 105.653 58.8926C107.449 57.7545 109.402 56.8842 111.277 55.8911C113.118 54.9092 114.836 53.7153 116.565 52.5437C117.324 52.0304 116.61 50.7919 115.84 51.3163C114.155 52.4544 112.493 53.6037 110.707 54.5745C108.844 55.5899 106.892 56.449 105.073 57.5648C101.357 59.8634 97.4967 61.8942 93.77 64.1592C92.9889 64.6279 93.703 65.8553 94.4952 65.3866Z" fill="#F3932B"/>
<path d="M95.3656 64.9741C95.9904 64.7509 96.5371 64.4274 97.1062 64.1038C97.7422 63.7356 98.434 63.4789 99.1257 63.2446C100.52 62.776 101.96 62.5193 103.388 62.1957C106.211 61.5486 108.978 60.6336 111.5 59.1831C113.854 57.8329 116.052 56.0365 117.67 53.8383C118.429 52.8006 118.908 51.5621 119.366 50.3682C119.823 49.1519 120.292 47.958 120.883 46.7976C121.81 44.99 122.635 43.1378 123.751 41.4306C124.264 40.6607 123.026 39.9466 122.524 40.7053C121.72 41.9215 121.062 43.2159 120.426 44.5102C119.812 45.7487 119.165 46.9538 118.641 48.237C118.161 49.4198 117.782 50.6471 117.212 51.7964C116.632 52.9792 115.784 53.9611 114.847 54.8872C112.872 56.8175 110.451 58.3127 107.896 59.3393C106.534 59.886 105.117 60.2989 103.689 60.6448C102.261 61.0018 100.811 61.2361 99.4047 61.649C98.6125 61.8833 97.8426 62.1734 97.0839 62.497C96.3586 62.8094 95.7226 63.3227 94.975 63.5905C94.127 63.9029 94.4952 65.2865 95.3656 64.9741Z" fill="#F3932B"/>
<path d="M106.434 77.348C109.101 75.1722 111.745 73.0187 115.204 72.3046C117.123 71.9029 119.098 71.9475 121.051 71.8583C123.037 71.769 125.034 71.7467 126.964 72.2934C127.846 72.55 128.225 71.1665 127.344 70.921C125.358 70.3519 123.282 70.3408 121.229 70.43C119.154 70.5193 117.056 70.5193 115.003 70.8986C111.232 71.5905 108.309 73.9894 105.43 76.3438C105.129 76.5893 105.173 77.1025 105.43 77.348C105.72 77.6493 106.133 77.6047 106.434 77.348Z" fill="#F3932B"/>
<path d="M100.889 72.1823C103.645 72.1823 106.389 72.1488 109.101 71.669C111.823 71.1892 114.356 70.1069 116.576 68.4667C120.861 65.2978 123.918 60.9461 126.596 56.4048C126.942 55.8246 127.21 55.2332 127.455 54.6083C127.701 53.9946 127.835 53.6041 128.181 53.0239C128.582 52.3544 128.337 51.4617 127.667 51.0712C126.987 50.6695 126.116 50.915 125.715 51.5845C125.346 52.2093 125.079 52.8788 124.822 53.5483C124.599 54.1062 124.331 54.6418 123.974 55.2444C123.316 56.3602 122.635 57.4536 121.921 58.536C120.515 60.6449 119.109 62.4413 117.224 64.2377C115.383 65.9896 113.296 67.4847 110.931 68.277C108.387 69.1361 106.021 69.27 103.321 69.3258C102.507 69.337 101.692 69.337 100.889 69.337C99.0476 69.337 99.0476 72.1823 100.889 72.1823Z" fill="#F3932B"/>
<path d="M11.7379 94.9224C11.7491 93.5054 11.883 92.3896 12.2735 91.0283C12.6529 89.7116 13.2889 88.5177 14.003 87.2791C14.7171 86.0183 15.3531 85.1479 16.4131 84.1772C17.3726 83.2957 18.3099 82.3696 19.2918 81.5104C21.1774 79.859 23.2974 78.4197 25.6405 77.2257C27.9279 76.0653 30.4384 75.3735 33.0716 74.7933C33.384 74.7263 33.6741 74.6817 33.9085 74.6594C34.6783 74.5924 35.3367 74.0568 35.3367 73.2311C35.3367 72.5059 34.6895 71.736 33.9085 71.8029C32.4356 71.9256 30.9516 72.3162 29.5346 72.6955C28.1957 73.0526 26.9014 73.5436 25.6294 74.0903C23.1412 75.1615 20.8762 76.6344 18.7339 78.2858C17.7074 79.0891 16.7255 79.9483 15.7771 80.8521C14.8398 81.7559 13.791 82.5927 12.9876 83.6193C12.0392 84.8244 11.2916 86.1968 10.611 87.5693C9.9527 88.8971 9.43944 90.2695 9.17166 91.7312C8.98197 92.7801 8.88155 93.8513 8.88155 94.9224C8.88155 96.7635 11.7268 96.7635 11.7379 94.9224Z" fill="#F3932B"/>
</g>
<defs>
<clipPath id="clip0_49_17028">
<rect width="425" height="132" fill="white"/>
</clipPath>
</defs>
</svg>
