<svg width="120" height="120" viewBox="0 0 120 120" fill="none" xmlns="http://www.w3.org/2000/svg">
<path d="M75.3572 64.4644L75.3591 38.2088C75.3602 34.8802 75.7085 31.9648 71.329 31.981L32.7717 31.9901C31.3345 31.9887 29.6473 31.8748 28.2307 32.0281C25.1362 32.3628 26.2882 35.0916 24.6694 36.0291C21.1034 36.2098 23.4143 29.9796 27.6316 29.3998C28.2504 29.3147 28.9212 29.352 29.546 29.3518L62.4457 29.355C66.4685 29.355 73.5823 28.2443 76.4365 31.2933C78.6436 33.6507 77.9669 37.8359 78.014 40.9571L89.6721 40.9587C95.9819 40.9519 97.0516 40.1025 100.412 46.306L106.907 58.1942C109.628 63.26 109.069 62.4575 109.065 68.2981L109.063 78.4318C109.046 82.7841 105.904 83.0353 102.409 83.0269L99.4887 83.0131C98.9622 83.0056 98.419 82.9531 97.8961 83.022C95.1989 93.6476 81.7732 92.3825 80.0086 83.022L58.3781 83.0206C57.4842 83.0196 56.5873 82.9789 55.6943 83.022C55.3408 83.6653 55.2595 84.4137 54.9605 85.0798C51.3241 93.1775 39.465 91.9224 37.7681 83.022C36.9375 82.9693 36.0996 83.0035 35.2676 83.0063L30.6363 83.0253C28.3272 83.0222 26.0107 83.1619 24.3396 81.2869C23.2488 80.0628 21.9853 76.3714 24.3358 75.7948C26.9615 76.4368 24.5147 79.47 27.3673 80.2395C28.2002 80.464 30.0169 80.3351 30.9698 80.3349L37.7681 80.3311C37.9648 77.551 39.6865 75.4948 41.8509 73.9456L22.0107 73.9489C21.2127 73.9536 19.4258 74.2613 18.7987 73.6313C18.3198 73.1503 18.2838 72.1573 18.8034 71.689C19.4133 71.1394 20.9136 71.3703 21.6682 71.3693L75.3572 71.3679C75.3408 69.9589 75.2702 68.4961 75.3572 67.0911C75.3708 66.2147 75.375 65.3407 75.3572 64.4644ZM78.014 43.6086C77.9803 45.8855 78.0138 48.1667 78.0138 50.4443L78.0133 69.6272C78.0126 73.7892 78.4549 73.9669 73.7991 73.95L51.6494 73.9456C53.9285 75.8932 55.2002 77.0787 55.6943 80.3311H80.0086C80.2048 77.0398 82.6987 74.2264 85.6809 73.0367C91.1468 71.2266 97.3692 74.4373 97.8961 80.3311L102.206 80.3346C107.175 80.3349 106.398 79.9693 106.376 75.3422C104.695 75.3422 102.979 75.2646 101.302 75.3422V72.5707H106.376L106.38 66.8248C106.38 61.7616 106.229 62.5777 103.706 58.0336L98.1112 47.6925C96.2967 44.3646 96.5294 43.6109 92.2858 43.6074L78.014 43.6086ZM46.3448 75.1287C42.802 75.3132 40.0858 78.3453 40.2909 81.8869C40.496 85.4286 43.5441 88.1269 47.0843 87.9014C50.5959 87.6776 53.2673 84.66 53.0641 81.1472C52.8607 77.6346 49.8586 74.9457 46.3448 75.1287ZM88.6345 75.1102C85.1083 75.2782 82.3851 78.2719 82.5508 81.7983C82.7166 85.3247 85.7086 88.0498 89.235 87.8862C92.7647 87.7226 95.4928 84.7275 95.3271 81.1978C95.1612 77.6682 92.164 74.9419 88.6345 75.1102Z" fill="#F3932B"/>
<path d="M13.4984 39.3674C13.6943 38.5905 13.936 38.2342 14.7666 38.0549C16.5958 37.9746 18.4592 38.054 20.2918 38.0559L45.2086 38.0571C47.4865 38.0578 49.7796 37.9928 52.0554 38.0566C53.1014 38.0859 53.5514 38.3015 53.8123 39.3674C53.4094 41.2966 50.9569 40.6886 49.2912 40.6867L25.8347 40.6851C25.7266 41.9756 25.8312 43.3483 25.8347 44.6486L41.5884 44.6465C42.7193 44.6467 45.0335 44.29 45.0633 45.9996C45.0888 47.4752 43.2987 47.286 42.3494 47.283L27.3194 47.2844C26.8247 47.2753 26.3294 47.2823 25.8347 47.2844V51.2688L32.0789 51.265C32.9683 51.2636 35.4152 50.9554 36.1048 51.5833C36.8646 52.2754 36.3914 53.7283 35.3833 53.8823C34.459 54.0236 33.3021 53.9139 32.3515 53.9135L25.8347 53.9095L25.8335 58.897C25.8314 59.9224 25.7855 60.9478 25.8347 61.9724C25.0416 62.8919 23.5387 63.0909 23.2397 61.6253C22.9275 60.0953 23.1648 55.8159 23.1467 53.9095C21.2158 54.0569 19.2158 53.9102 17.2753 53.9099L14.0235 53.9114C12.9653 53.9123 11.0926 54.2104 11.001 52.661C10.8793 50.6031 14.3374 51.2711 15.5472 51.2711L23.1467 51.2688V47.2844L19.5468 47.2933C18.9503 47.2947 18.3009 47.3477 17.7122 47.2614C16.3297 47.0589 16.1908 45.0353 17.577 44.7105C18.2571 44.5511 19.0497 44.6381 19.7463 44.6409L23.1467 44.6486V40.6851C21.9242 40.6771 14.8295 40.8384 14.2443 40.5194C13.8039 40.2792 13.6402 39.817 13.4984 39.3674Z" fill="#F3932B"/>
<path d="M99.2051 65.8632C96.4973 67.242 92.5172 65.0848 89.6843 64.2621L85.1276 62.9637C84.0199 62.6482 82.1838 62.5395 82.0994 61.0559C81.9019 57.5888 81.9159 52.4759 82.0971 49.006C82.1442 48.1011 82.6315 47.6053 83.4848 47.2843C84.0087 47.3527 84.6098 47.2948 85.1412 47.2925L88.4733 47.2796C92.632 47.2664 93.1146 47.3843 94.9856 50.802L99.4561 58.9857C100.775 61.3341 102.296 63.8077 99.2051 65.8632ZM84.7205 50.0389L84.7228 56.7275C84.723 57.8091 84.7772 58.9149 84.7205 59.993C86.5847 60.6401 88.5213 61.1189 90.4085 61.7039L94.466 62.9553C95.4108 63.2478 96.338 63.5614 97.3041 63.7789C97.5284 63.6926 97.713 63.623 97.8961 63.4646C98.5472 62.8491 98.4286 62.6075 98.0412 61.8666C97.1606 60.1835 92.0447 50.7399 91.4782 50.2008C90.5463 49.8769 86.0076 50.0365 84.7205 50.0389Z" fill="#F3932B"/>
<path d="M18.4744 66.7695C16.3855 63.4238 24.6005 64.464 26.0979 64.4638L75.3572 64.4642C75.375 65.3406 75.3708 66.2145 75.3572 67.0909L21.3724 67.0972C20.3774 67.1007 19.3629 67.2849 18.4744 66.7695Z" fill="#F3932B"/>
<path d="M15.0671 73.9453C14.2884 73.9753 12.6886 74.0728 12.0002 73.8354C10.684 73.3817 11.0328 71.7715 12.1634 71.3677C13.3908 71.2812 16.9577 70.9399 15.8939 73.2694C15.7206 73.6491 15.4433 73.8038 15.0671 73.9453Z" fill="#F3932B"/>
<path d="M47.0829 85.9585C44.6386 86.1786 42.4786 84.3758 42.2583 81.9317C42.0377 79.4874 43.8403 77.3272 46.2844 77.1062C48.7291 76.8854 50.8901 78.6882 51.1106 81.1332C51.3312 83.578 49.5279 85.7385 47.0829 85.9585ZM46.1963 79.7345C45.2142 79.9892 44.6203 80.9874 44.8648 81.972C45.1092 82.9569 46.1009 83.5613 47.0883 83.3272C47.7363 83.1737 48.2517 82.6838 48.4383 82.0445C48.6248 81.4051 48.4535 80.7149 47.9897 80.237C47.5256 79.7591 46.841 79.5671 46.1963 79.7345Z" fill="#F3932B"/>
<path d="M89.8003 85.8669C87.4155 86.3324 85.102 84.7871 84.6183 82.4064C84.1345 80.0253 85.6619 77.6999 88.0392 77.1978C90.4423 76.6906 92.7987 78.2382 93.2876 80.645C93.7765 83.0521 92.2108 85.3965 89.8003 85.8669ZM88.616 79.768C87.6326 79.9799 87.0073 80.9492 87.2198 81.9324C87.4324 82.9159 88.4023 83.5403 89.3855 83.3267C90.3673 83.1135 90.9907 82.145 90.7784 81.163C90.566 80.181 89.5983 79.5566 88.616 79.768Z" fill="#F3932B"/>
</svg>
