<svg width="65" height="64" viewBox="0 0 65 64" fill="none" xmlns="http://www.w3.org/2000/svg">
<path d="M11.3004 32.4469C11.1804 32.6388 11.0453 32.7755 10.8119 32.8148C9.97202 32.9563 10.1863 31.5874 10.1866 31.1035L10.1788 13.7084C10.1468 11.7128 10.5791 9.94369 13.0209 9.6875C13.6176 9.63393 14.3064 9.68514 14.9144 9.68573L49.754 9.68655C50.5035 9.68659 51.2896 9.63984 52.0354 9.7047C53.4236 9.82543 54.6728 11.0547 54.7976 12.4516C54.8624 13.1759 54.8141 13.9403 54.8138 14.6699L54.813 49.1773C54.8141 49.8555 54.8761 50.5568 54.8116 51.2309C54.5203 54.2724 51.6586 54.0648 49.5214 54.0637L14.6945 54.0635C14.09 54.0635 13.4451 54.1105 12.8461 54.0462C11.7148 53.9247 10.4156 52.8223 10.2539 51.6497C10.1095 50.6023 10.1878 49.226 10.1877 48.151L10.1875 39.1879C10.1866 38.7352 9.93035 37.259 10.7642 37.4099C11.0287 37.4578 11.1511 37.6011 11.3004 37.8058C11.2549 38.6595 11.2996 39.5347 11.3 40.3913L11.2993 49.2937C11.2989 50.3004 11.1123 51.3363 11.7255 52.2044C12.4066 53.0749 13.2894 52.959 14.2609 52.9539L51.3504 52.9667C53.5135 52.972 53.6986 51.4945 53.6974 49.75L53.6959 17.1537C53.1859 17.1152 52.6635 17.1509 52.1519 17.1532L11.3004 17.1537V32.4469ZM13.1483 10.7965C11.1708 11.0163 11.2961 12.7473 11.2986 14.2442C11.2995 14.8329 11.2784 15.4273 11.3004 16.0153H51.936H53.6959L53.6984 13.9848C53.705 10.9335 53.135 10.784 49.995 10.7974L14.136 10.7935C13.8131 10.7927 13.4679 10.7501 13.1483 10.7965Z" fill="white"/>
<path d="M22.8277 14.5781C22.2001 14.5914 21.6797 14.095 21.6634 13.4674C21.647 12.8398 22.1407 12.3169 22.7682 12.2974C23.4002 12.2778 23.9276 12.7759 23.944 13.4079C23.9605 14.0399 23.4599 14.5648 22.8277 14.5781Z" fill="white"/>
<path d="M14.9217 14.5434C14.3126 14.6684 13.7169 14.2786 13.5874 13.6706C13.4579 13.0625 13.8434 12.4639 14.4505 12.33C15.0639 12.1948 15.67 12.585 15.8009 13.1994C15.9316 13.8138 15.537 14.417 14.9217 14.5434Z" fill="white"/>
<path d="M18.9206 14.554C18.3085 14.6619 17.7245 14.2544 17.6141 13.6428C17.5037 13.0311 17.9087 12.4453 18.52 12.3324C19.1347 12.2189 19.7247 12.6268 19.8357 13.242C19.9467 13.8574 19.5364 14.4456 18.9206 14.554Z" fill="white"/>
<path d="M19.8773 31.0992C18.8564 30.4525 18.1138 29.5315 17.9815 28.2852C17.7454 26.0586 18.2474 26.1482 19.6273 24.4161L21.338 22.2565C21.917 21.5347 22.3473 20.8691 23.3423 20.76C23.626 20.7361 23.9225 20.757 24.2078 20.7577L38.1821 20.7596C39.0728 20.7596 41.749 20.5405 42.4448 21.0096C42.8201 21.2629 46.141 25.493 46.7024 26.2529C47.2255 26.9611 46.7055 29.3635 46.159 30.0485C45.9863 30.2652 45.239 30.8626 45.185 31.0346C45.132 31.2034 45.1793 32.6184 45.1775 32.9135L45.1831 43.5026C45.184 45.9847 43.3711 45.662 41.5548 45.6562L23.3078 45.6535C20.4354 45.6517 19.8773 45.6831 19.8764 42.6364L19.8773 31.0992ZM30.6089 21.8607L25.9541 21.8597C22.7969 21.8602 23.3978 21.4522 21.5346 23.8041C20.9471 24.5459 20.3388 25.261 19.787 26.0312C21.1858 26.0305 22.5858 25.9066 23.9831 25.8452C27.0801 25.7091 31.0518 25.4962 34.1484 25.7812C37.7881 25.7909 41.4471 26.0415 45.065 26.0312C44.5349 25.2566 42.2073 22.2635 41.6553 21.8607H30.6089ZM27.5039 26.8462C26.6405 26.8381 25.7026 26.8424 24.8438 26.9419C24.835 28.4582 24.7829 30.0921 26.7044 30.3435C27.7735 30.6207 28.8773 29.9136 29.1595 28.8564C29.3276 28.227 29.2214 27.4622 29.223 26.8121C28.6534 26.7971 28.0714 26.7936 27.5039 26.8462ZM30.3751 26.8462L30.3349 26.8869C30.3984 27.9441 30.2005 29.0901 31.0801 29.8681C32.0526 30.7282 33.183 30.4411 34.1484 29.7712C34.9384 28.6637 34.8214 28.1439 34.8148 26.8462C33.5013 27.0257 31.786 26.756 30.3751 26.8462ZM35.9355 26.9419C35.9306 27.9552 35.7765 28.9745 36.5628 29.7559C37.408 30.5959 38.711 30.5215 39.5215 29.6761C40.2419 28.8192 40.1575 28.1519 40.1563 27.086C39.058 26.9262 37.0626 26.8806 35.9355 26.9419ZM23.3423 26.9419C22.5485 27.1527 20.0028 27.2255 19.0621 27.2172C19.055 28.3086 19.1913 29.1387 20.0523 29.8777C21.1233 30.6129 22.5563 30.4521 23.3146 29.353C23.7854 28.6706 23.796 27.7409 23.7499 26.9419H23.3423ZM41.2196 27.086C41.2153 28.0494 41.1769 28.9771 41.9085 29.7137C42.8493 30.6607 44.0719 30.2967 45.065 29.6761C45.7811 28.542 45.7189 28.4477 45.7195 27.1281C44.2261 27.2312 42.7135 26.9895 41.2196 27.086ZM40.7169 30.0057C39.0313 31.9656 37.1501 32.0385 35.3664 30.1166C33.7775 31.967 31.3836 32.0901 29.8256 30.1166C28.2651 32.0989 25.7494 32.0614 24.2365 30.0057C23.4199 31.0826 22.2976 31.5516 20.9841 31.376L20.9825 42.4962C20.9821 43.1494 20.796 44.0809 21.374 44.54C21.876 44.5819 22.3981 44.541 22.903 44.5405L36.7421 44.54C35.8315 43.9234 34.9053 43.3277 33.9766 42.7386C31.8843 41.4112 32.0896 41.8815 32.0913 39.5279L32.0941 35.8614C32.3799 35.296 36.0484 33.3489 36.7421 32.9579C36.9535 32.8191 37.2194 32.5949 37.4898 32.6329C37.7618 32.6712 40.3555 34.332 40.7169 34.5856C40.4093 34.8255 40.1096 35.0687 39.9078 35.4089C39.1108 34.9514 38.267 34.236 37.4099 33.9404C36.8288 34.0699 33.3728 36.1497 33.2213 36.3552C33.1888 36.3992 33.2189 40.5394 33.2188 40.9372L35.7363 42.5216C36.292 42.8761 36.8388 43.254 37.4099 43.5826C38.8313 42.6876 40.2658 41.7827 41.6553 40.8402V36.9955C41.8703 36.7625 42.5095 35.77 42.7311 36.4179C42.8196 36.6766 42.8209 41.1859 42.724 41.3915C42.5405 41.7809 38.6963 44.0279 38.0201 44.54L41.6283 44.5416C44.3686 44.5414 44.0691 44.7065 44.0651 42.1165L44.064 33.9165C44.0644 33.0814 44.0928 32.2356 44.0645 31.4015L44.0635 31.376C41.9916 31.4127 42.0018 31.1965 40.7169 30.0057Z" fill="white"/>
<path d="M10.3499 36.2509L10.3211 36.2004C10.0768 35.7626 9.92054 34.3029 10.6342 33.9404C10.942 33.9421 11.1034 34.0858 11.3004 34.3074C11.327 34.9219 11.5555 36.0744 10.8697 36.3931C10.6423 36.4214 10.5409 36.3631 10.3499 36.2509Z" fill="white"/>
<path d="M37.1385 39.4637C37.4043 39.0775 37.7521 38.7346 38.0633 38.3835L39.9976 36.2386C40.4323 35.7608 41.0198 34.7788 41.6553 34.5858C42.1468 34.5665 42.4318 34.8717 42.2229 35.3343C42.142 35.5135 37.8081 40.5857 37.3058 40.7478C36.8826 40.8842 35.6663 39.6683 35.203 39.4637C35 39.2666 34.5475 38.9801 34.5375 38.6811C34.5243 38.2807 34.9866 37.8487 35.3724 38.0757C35.7994 38.3271 36.791 39.1341 37.1385 39.4637Z" fill="white"/>
</svg>
