<svg width="65" height="64" viewBox="0 0 65 64" fill="none" xmlns="http://www.w3.org/2000/svg">
<path d="M41.7975 9.11453C40.687 9.25873 39.671 8.47234 39.5323 7.36115C39.3935 6.24998 40.1848 5.23783 41.2966 5.10443C42.4009 4.97195 43.4045 5.75668 43.5424 6.86024C43.6803 7.9638 42.9004 8.97132 41.7975 9.11453ZM41.5251 6.33554C41.2474 6.3504 40.9995 6.51438 40.877 6.76413C40.7546 7.01388 40.7769 7.31033 40.9353 7.53899C41.0936 7.76765 41.3633 7.89275 41.6401 7.86595C42.0556 7.82575 42.3629 7.4608 42.3316 7.0445C42.3003 6.6282 41.942 6.31323 41.5251 6.33554Z" fill="white"/>
<path d="M49.5265 11.5653C50.0208 11.0041 50.5676 10.7005 51.3163 10.6398C52.5253 10.6286 53.5946 11.2463 53.9121 12.476C54.3015 13.9838 53.021 15.4911 52.231 16.6728C50.9782 18.547 51.0365 18.5887 49.0791 17.3657C48.0731 16.7377 46.5595 15.7768 46.1117 14.6468C45.2775 12.5416 47.2791 10.5518 49.5265 11.5653ZM51.3163 12.3161L51.2727 12.3306C50.5297 12.5823 50.771 13.5725 50.1482 13.7845C49.4465 14.0233 48.9845 13.0176 48.3778 12.8441C46.6361 13.2228 47.9126 14.5186 48.731 15.1505C49.3135 15.5632 49.9111 15.9236 50.5145 16.3021C50.8106 15.7908 53.8146 12.0422 51.3163 12.3161Z" fill="white"/>
<path d="M17.8628 17.4891C17.2576 17.7905 16.0353 18.7472 15.3977 18.2545C14.8051 17.7966 13.1957 14.5367 13.1002 13.7704C12.9146 12.2817 13.891 11.0006 15.3883 10.8239C16.2676 10.7533 16.9742 11.186 17.5011 11.8727C19.5733 11.1175 21.448 12.8652 20.7437 14.9649C20.3092 16.26 19.0048 16.9254 17.8628 17.4891ZM15.3883 12.535C14.0985 12.9896 15.1085 14.3807 15.5045 15.119C15.7447 15.5671 15.9667 16.0279 16.2308 16.4624C16.8396 16.1271 17.484 15.8237 18.0783 15.4669C18.8498 15.0217 19.859 13.6834 18.6503 13.3969C18.0485 13.2542 17.6687 14.0616 17.0813 13.9636C16.1928 13.8154 16.5067 12.5005 15.3883 12.535Z" fill="white"/>
<path d="M24.7194 21.1103C24.7042 18.59 24.676 16.1853 26.3849 14.115C27.7485 12.463 29.6807 11.3346 31.8312 11.1247C36.086 10.9665 39.8479 13.9087 40.2697 18.2489C40.3609 19.1878 40.3118 20.1675 40.3106 21.1103L40.4964 21.1072C41.47 21.0937 44.0409 20.9997 44.8118 21.2274C46.3453 21.6805 46.4562 22.9788 46.6045 24.2969L49.2295 48.8317C49.3974 50.4038 49.5872 52.4409 47.4258 52.8155C46.8598 52.9137 46.246 52.8739 45.6722 52.8735L33.357 52.8722L19.4513 52.8735C18.853 52.8738 18.196 52.9243 17.607 52.8165C15.5078 52.4325 15.6872 50.5345 15.8494 49.0045L18.5275 24.5054C18.8855 21.5009 18.8274 21.1048 22.0262 21.1077L24.7194 21.1103ZM31.9629 12.8444C30.2238 13.12 28.7054 13.8482 27.6463 15.3049C26.2179 17.2695 26.4454 18.8638 26.407 21.1103H33.086L36.7052 21.1069C37.3392 21.1055 37.9935 21.0697 38.6254 21.1103C38.6849 18.7249 38.6914 16.5947 36.9189 14.7452C35.697 13.4704 33.751 12.6267 31.9629 12.8444ZM20.8469 22.8128C20.4392 22.8423 20.397 22.8572 20.3479 23.2759L17.5499 48.5675C17.2269 51.5965 17.2134 51.2038 19.9152 51.2025L45.1914 51.203C45.9932 51.2035 47.7457 51.5635 47.7084 50.3333C47.6229 47.5148 46.9764 44.027 46.6933 41.1474L45.0062 24.9162C44.9419 24.3265 44.917 23.6529 44.724 23.0905C44.2628 22.64 43.6272 22.8092 43.0272 22.8103C42.1229 22.812 41.2145 22.8334 40.3106 22.8128C40.2934 23.8837 40.3785 24.9993 40.3106 26.0612C42.195 26.1098 41.591 27.5575 40.8617 27.6564C40.4964 27.7059 40.1032 27.658 39.7344 27.6598C38.9754 27.6634 37.2593 27.9472 37.5628 26.6197C37.6673 26.1629 38.2405 26.0925 38.6254 26.0612L38.6225 24.0627C38.6202 23.6462 38.598 23.2285 38.6254 22.8128H26.407V26.0612C27.3708 26.0617 28.1857 26.789 27.4609 27.493C27.0845 27.8587 24.897 27.7397 24.2872 27.7075C23.3903 27.66 22.9734 26.0289 24.7194 26.0612V22.8128C23.4365 22.8635 22.1324 22.8124 20.8469 22.8128Z" fill="white"/>
<path d="M12.296 28.645C11.2075 28.73 10.2573 27.9141 10.1768 26.8252C10.0964 25.7365 10.9163 24.7897 12.0054 24.7138C13.0881 24.6383 14.028 25.4523 14.108 26.5347C14.188 27.617 13.378 28.5603 12.296 28.645ZM11.9259 25.9215C11.5163 26.0397 11.2755 26.4628 11.3831 26.8755C11.4906 27.288 11.9073 27.5397 12.3225 27.443C12.6805 27.3596 12.933 27.0395 12.9306 26.6718C12.9284 26.3336 12.71 26.0346 12.3884 25.9295C12.2385 25.8805 12.0774 25.8777 11.9259 25.9215Z" fill="white"/>
<path d="M52.2447 33.5554C51.7299 33.3141 51.5966 32.7866 51.3638 32.3067C50.5934 30.7184 49.2407 28.4905 50.4849 26.7987C50.9319 26.191 51.5142 25.9056 52.2447 25.7892C53.3061 25.7204 54.0692 26.1997 54.6208 27.108C56.6434 26.7016 58.5078 27.976 57.7774 30.0764C57.3338 31.3519 56.0007 32.074 54.8559 32.6247C54.2419 32.9 52.8538 33.4974 52.2447 33.5554ZM52.4198 27.471C50.6711 27.8725 52.3297 30.7926 52.8657 31.6017C53.6737 31.276 54.4833 31.0361 55.2416 30.5899C55.6342 30.3411 56.1887 30.0011 56.2813 29.4995C56.3583 29.0831 55.9954 28.6932 55.5918 28.6499C54.8852 28.574 54.5144 29.5122 53.8401 29.3244C52.9423 29.0741 53.5617 27.3724 52.4198 27.471Z" fill="white"/>
<path d="M33.1733 28.2065C33.6133 27.8805 34.0686 27.7578 34.6118 27.9337C35.2399 28.0871 35.7003 28.7942 35.6987 29.4155C35.6961 30.3725 34.6321 31.101 33.9886 31.6989C32.9372 32.6757 33.0221 32.6571 31.9678 31.4784C31.5091 30.9724 30.7681 30.2982 30.6874 29.6001C30.5316 28.2524 32.1319 27.3414 33.1733 28.2065ZM34.272 28.8835C33.6281 28.8437 33.6883 29.6283 33.1583 29.5998C32.6383 29.5719 32.7448 29.0572 32.2705 28.8661C31.2163 29.0097 31.8903 29.8002 32.222 30.2011C32.4995 30.5244 32.8214 30.8199 33.0879 31.1489C33.4524 30.8138 35.5585 29.3093 34.272 28.8835Z" fill="white"/>
<path d="M28.3253 40.1762C26.3472 40.2472 24.6884 38.6961 24.6267 36.7176C24.5648 34.7392 26.1235 33.0876 28.1023 33.035C30.0682 32.9826 31.7065 34.529 31.768 36.4946C31.8294 38.4602 30.2905 40.1059 28.3253 40.1762ZM28.0608 34.6671C25.666 35.0311 25.9078 38.5595 28.4454 38.5437C30.8094 37.9436 30.1102 34.4137 28.0608 34.6671Z" fill="white"/>
<path d="M27.5846 47.8433C26.9598 47.8634 26.2968 47.3391 26.6758 46.6666C26.9987 46.0938 27.697 45.4165 28.1446 44.9105L37.0651 34.721C37.5117 34.2179 37.9452 33.5284 38.6253 33.3428C39.1683 33.3518 39.7158 33.9079 39.4526 34.4604C39.2207 34.9468 38.4502 35.6961 38.0621 36.1328L30.6337 44.6342C30.0591 45.2878 28.2686 47.5814 27.5846 47.8433Z" fill="white"/>
<path d="M8.9121 38.2538C9.34541 37.5025 9.92936 37.0368 10.8293 36.9494C11.8384 36.7756 12.9537 37.512 13.3435 38.4155C13.944 39.8071 12.8584 41.537 12.3012 42.8116C11.3907 44.8943 11.5022 44.8136 9.22669 43.7671C8.24097 43.3219 6.73911 42.8103 6.1812 41.8473C5.10414 39.9881 6.85346 37.6546 8.9121 38.2538ZM10.9355 38.5435C9.97509 38.8921 10.5578 39.9938 9.76998 40.287C8.99709 40.5746 8.82683 39.7599 8.01723 39.7818C6.5767 40.6559 8.05473 41.3785 8.78963 41.7514C9.39671 42.0459 10.0509 42.2718 10.6457 42.5815C10.9635 41.8646 13.0728 38.3498 10.9355 38.5435Z" fill="white"/>
<path d="M37.2891 48.7903C35.3051 48.9723 33.5449 47.5216 33.3445 45.5394C33.144 43.5571 34.5783 41.7836 36.5585 41.5648C38.565 41.3431 40.3671 42.8004 40.5703 44.8089C40.7733 46.8173 39.2994 48.6058 37.2891 48.7903ZM36.6703 43.16C34.3006 43.6811 34.8159 47.4753 37.1966 47.1808C39.576 46.7418 39.1364 42.9258 36.6703 43.16Z" fill="white"/>
<path d="M56.016 49.7218C54.9199 49.869 53.9104 49.1039 53.756 48.0086C53.6017 46.9135 54.3604 45.8991 55.4545 45.7376C56.5587 45.5748 57.5845 46.3419 57.7402 47.4471C57.896 48.5524 57.1222 49.5731 56.016 49.7218ZM55.562 46.9833C55.149 47.0865 54.8962 47.5033 54.9955 47.9173C55.0947 48.3314 55.5089 48.5881 55.9239 48.493C56.3447 48.3965 56.6059 47.9753 56.5052 47.5554C56.4046 47.1356 55.9809 46.8785 55.562 46.9833Z" fill="white"/>
</svg>
