<svg width="31" height="32" viewBox="0 0 31 32" fill="none" xmlns="http://www.w3.org/2000/svg">
<g clip-path="url(#clip0_49_16596)">
<path d="M0 15.0533C0 9.95913 0 7.4121 0.991386 5.4664C1.86343 3.75491 3.25491 2.36343 4.9664 1.49139C6.9121 0.5 9.45913 0.5 14.5533 0.5H16.4467C21.5409 0.5 24.0879 0.5 26.0336 1.49139C27.7451 2.36343 29.1366 3.75491 30.0086 5.4664C31 7.4121 31 9.95913 31 15.0533V16.9467C31 22.0409 31 24.5879 30.0086 26.5336C29.1366 28.2451 27.7451 29.6366 26.0336 30.5086C24.0879 31.5 21.5409 31.5 16.4467 31.5H14.5533C9.45913 31.5 6.9121 31.5 4.9664 30.5086C3.25491 29.6366 1.86343 28.2451 0.991386 26.5336C0 24.5879 0 22.0409 0 16.9467V15.0533Z" fill="url(#paint0_linear_49_16596)"/>
<path d="M23.4548 11.4386C22.3445 11.4386 21.3419 11.7743 20.4858 12.349V7.104H18.1176V16.777C18.1176 19.7199 20.5119 22.0882 23.4417 22.0882C26.3717 22.0882 28.7932 19.7341 28.7932 16.7498C28.7932 13.7655 26.4248 11.4386 23.4548 11.4386ZM12.707 17.4604L10.5397 11.8146H8.88085L6.70051 17.4604L4.52025 11.8146H1.93677L5.74992 21.7418H7.4088L9.69666 15.8287L11.9976 21.7418H13.6565L17.4566 11.8146H14.8873L12.707 17.4604ZM23.4429 19.7211C21.8373 19.7211 20.4858 18.437 20.4858 16.764C20.4858 15.0909 21.7569 13.8211 23.4559 13.8211C25.155 13.8211 26.4261 15.1453 26.4261 16.764C26.4261 18.3826 25.0746 19.7211 23.4429 19.7211Z" fill="white"/>
</g>
<defs>
<linearGradient id="paint0_linear_49_16596" x1="10.4273" y1="34.1773" x2="29.45" y2="2.47273" gradientUnits="userSpaceOnUse">
<stop stop-color="#6F01FB"/>
<stop offset="1" stop-color="#FF49D7"/>
</linearGradient>
<clipPath id="clip0_49_16596">
<rect width="31" height="31" fill="white" transform="translate(0 0.5)"/>
</clipPath>
</defs>
</svg>
